/* XPM */
static char *_6159_24151dc31822acb9df5241121f3241fb39cebe1a08bdbd78ab685d9f06e74d41[] = {
/* columns rows colors chars-per-pixel */
"64 64 256 2 ",
"   c #000101",
".  c #010009",
"X  c #080105",
"o  c #010212",
"O  c #010219",
"+  c #070318",
"@  c #010223",
"#  c #01022A",
"$  c #01082A",
"%  c #080326",
"&  c #010332",
"*  c #020933",
"=  c #090933",
"-  c #010439",
";  c #010A3A",
":  c #090839",
">  c #05113A",
",  c #100D39",
"<  c #000442",
"1  c #010A42",
"2  c #000B4A",
"3  c #070945",
"4  c #011242",
"5  c #0A1245",
"6  c #01134A",
"7  c #011A4A",
"8  c #0A1B4C",
"9  c #091747",
"0  c #111849",
"q  c #001352",
"w  c #011A52",
"e  c #0B1C54",
"r  c #011B5A",
"t  c #0A1C5A",
"y  c #071355",
"u  c #111C53",
"i  c #121B59",
"p  c #080C56",
"a  c #042149",
"s  c #01215A",
"d  c #0B235C",
"f  c #0B2A5C",
"g  c #062454",
"h  c #12235B",
"j  c #132757",
"k  c #113158",
"l  c #242455",
"z  c #011B64",
"x  c #101E60",
"c  c #0B2462",
"v  c #0B2A63",
"b  c #012A6A",
"n  c #0B2C6A",
"m  c #032567",
"M  c #132A65",
"N  c #01316B",
"B  c #093368",
"V  c #12336C",
"C  c #153668",
"Z  c #052B73",
"A  c #013273",
"S  c #0B3473",
"D  c #013A7B",
"F  c #0B3C7B",
"G  c #063975",
"H  c #153975",
"J  c #182C73",
"K  c #223875",
"L  c #212E69",
"P  c #08437B",
"I  c #13437D",
"U  c #18477A",
"Y  c #0C4973",
"T  c #25457A",
"R  c #26627E",
"E  c #053B85",
"W  c #053E91",
"Q  c #014384",
"!  c #0B4483",
"~  c #074A8A",
"^  c #124D8B",
"/  c #174987",
"(  c #08538D",
")  c #18558B",
"_  c #004C94",
"`  c #074C97",
"'  c #144C94",
"]  c #01549C",
"[  c #0A5B9D",
"{  c #085597",
"}  c #125C9D",
"|  c #175796",
" . c #234B87",
".. c #24568B",
"X. c #245695",
"o. c #2F5793",
"O. c #17649A",
"+. c #07649A",
"@. c #27639B",
"#. c #376792",
"$. c #0659A7",
"%. c #145CA4",
"&. c #0859B0",
"*. c #0B63A5",
"=. c #0263AC",
"-. c #0A63AC",
";. c #0568A9",
":. c #1363A4",
">. c #1668A9",
",. c #0574AD",
"<. c #1675AA",
"1. c #0063B5",
"2. c #016BB5",
"3. c #026BBC",
"4. c #096EBB",
"5. c #0968B4",
"6. c #136CB3",
"7. c #136BB8",
"8. c #0273BD",
"9. c #0B73BB",
"0. c #0476B8",
"q. c #1274BB",
"w. c #1677B9",
"e. c #246CA9",
"r. c #2377B8",
"t. c #357AB8",
"y. c #2A70AB",
"u. c #0274C4",
"i. c #0A74C3",
"p. c #017BC6",
"a. c #0B7BC4",
"s. c #017BCD",
"d. c #0B7CCB",
"f. c #0975C8",
"g. c #1275C2",
"h. c #137BC3",
"j. c #127DCB",
"k. c #197AC5",
"l. c #067ED3",
"z. c #0C74CA",
"x. c #247DC6",
"c. c #427EA2",
"v. c #1583BA",
"b. c #048BBD",
"n. c #2C88B7",
"m. c #29869C",
"M. c #0283CD",
"N. c #0C82CC",
"B. c #008BCE",
"V. c #0689C8",
"C. c #1283CB",
"Z. c #128ACC",
"A. c #1885C8",
"S. c #0594CA",
"D. c #1797CC",
"F. c #0284D5",
"G. c #0B83D3",
"H. c #018CD6",
"J. c #0A86DA",
"K. c #0B8BDC",
"L. c #078AD8",
"P. c #1184D4",
"I. c #118BD4",
"U. c #118CDC",
"Y. c #188AD8",
"T. c #0C93DD",
"R. c #0497DA",
"E. c #1394DC",
"W. c #1994DD",
"Q. c #1597D8",
"!. c #2288CA",
"~. c #2389D6",
"^. c #2294DC",
"/. c #2598D8",
"(. c #3095CB",
"). c #16A7DB",
"_. c #1CB3DD",
"`. c #06A6D6",
"'. c #24A6DB",
"]. c #25B9D9",
"[. c #32AFD3",
"{. c #068EE5",
"}. c #128DE3",
"|. c #0B94E4",
" X c #0A9CED",
".X c #0697E8",
"XX c #1394E5",
"oX c #129BE5",
"OX c #129DEE",
"+X c #199CED",
"@X c #1797E8",
"#X c #159EF3",
"$X c #2299E8",
"%X c #2999F0",
"&X c #0AA4EC",
"*X c #07A5E8",
"=X c #13A2ED",
"-X c #1AA3ED",
";X c #15A9E8",
":X c #17B4EA",
">X c #10A4F6",
",X c #15AAF8",
"<X c #18B7F9",
"1X c #08A7F8",
"2X c #23A7E8",
"3X c #22B3EC",
"4X c #25BCED",
"5X c #2ABAE9",
"6X c #35BBEB",
"7X c #25AAF9",
"8X c #25B8FB",
"9X c #33B5FC",
"0X c #34A8EF",
"qX c #71B5CE",
"wX c #4BB7E7",
"eX c #4CA7D7",
"rX c #2CC2DC",
"tX c #1DC1F0",
"yX c #29C4E9",
"uX c #36C7EC",
"iX c #39D3EC",
"pX c #2AC6F7",
"aX c #31CEFF",
"sX c #36C8F9",
"dX c #35D2F8",
"fX c #3FE1F4",
"gX c #4AC6DA",
"hX c #46CAEA",
"jX c #46D4ED",
"kX c #45D9FA",
"lX c #56D9F9",
"zX c #4DD1F3",
"xX c #68DAF0",
"cX c #47E5FC",
"vX c #55EBFD",
"bX c #57F5FF",
"nX c #52E6EF",
"mX c #64EBFC",
"MX c #6BF5FF",
"NX c #65F8FF",
"BX c #73FDFF",
"VX c #77F7FD",
"CX c #70E5F3",
"ZX c #63CCDE",
"AX c #8BDCF0",
"SX c #88F8FD",
"DX c #99FAFE",
"FX c #89EDF7",
"GX c #A9FCFD",
"HX c #BAFCFF",
"JX c #ABF2F3",
"KX c #C8FDFF",
"LX c #D9FEFD",
"PX c #EAFDFE",
"IX c #F7FFFF",
"UX c #89B9C8",
/* pixels */
"O o <XcX+ @ = @ O % 2 # - - # - - ' y @ % * $ 1 K < 1 5 bXBX& g H 0 e & C - u # & & h T $ > H 3 5 * U 2 d M e cX) 5 * = @ H j 5 ",
"o . A.O # + @ @ # - @ & % : : - & , 5 , @ 3 1 0 , 9 K & n u d i # L C & 5 : ; 3 > @ % * u = = 9 , - # # O ; % * O = = = ; 0 = 0 ",
"- - 3 1XP.q A S q b w { { B * &X.X<X4XcXZ.I.B uXcX}.3X<XkXyXkXoX'.] sX9XyX| yXvXBXa cX2.cXtXdXA S 6.h.[ @.4 M ;XaXQ./.A.C.G.*.C.",
"Q.D NXn.=.{.DX@ ;.dX5X~ mX$ , cX.X;XDX;XxX..MXMX5X|.SX%.| GX&XL.GX4 @.VXMXs zX$ 9 ! 1XQ.T.t hXg Q.G ZX:XN.N.7XMX2XpXPXcXLXJX-Xe.",
"4XS -.DXU . SX+ |.2 ; 2 = - # |.dX( a.$.!.c & y ; n ;.*.b U V ..#.x F.t y 7 4 6 & 8 aXA.PX7.$ KXw n.2 MX$. XhX4 qXS r  .q.LX;._.",
"z x 2X{ q e.@.6 KX{ Z.H.A # >  X{.I.5.w O.2XKXKXDX>XF.6.SX:XE ;XE S wX@X,XpXP H L +. X> 7.g.#X4.SX5 !.=.E.DX( 7.u.3.&.`.,X,X>.z ",
"GXz uXQ v @ CX~ 8.i.$.n 3 5 # 8X|.Y.2 ] #X$.F.J.}.{.9.&XyXE.C.` wX0XE 3.8XM.@ H ; a 7XLX{ w.1 0.OX2X7Xa.-X}.$.r *.=.9.h.F N.q l.",
"2 ` & @ D _ :.%.$.1.5.<.; h e aX{.s.SXZ -._ C.0.K.2._ G.*.@.t 9.U.C.Y.8.Y.XXj / 0.n.HXl.s.qXA h.i.] Y.I.q.7.FXA.*._ h.oX:.+X2 -.",
"6 G.D + D N Q 5.: 1.i.# Z - & |.pX1X~ OXdX;.U.8 4.}.S +X8XE l.J.7XOX8.F.2XG 6.P * +.Q p.FXN.-.$.7.E Z.%.*.^ zX!.P :X<X' 6.E.} K.",
"i.m & ( { %.~ _ { a.- : Q = 3 <X.X2 2 l.].^ D.d.K. X=X>XT w.Y.' i.W.$.a.+.y.Q V c g  X:X0.A.] Q.b 4.Y.h.8.j.L.j.$.$.j.u.Y.G.Y.aX",
"2 x f.w.l.Z $.P $.n DXs.@ 3 5 ,X X{.w.,Xa.! z.H ^ U 8 q.XXi.k.~.' w.[ !.BXQ.,.4 ) B T.w.U x.%.;Xd.,XK.5XU '.n o.^ g.~.!.U.9.XXU ",
"%.}.7 : z.% @ 3 V 7 4 E d.# M tX.XNXJ.sX4.p.< r {.L.@X,Xf d j.: e h *.>./ P ! 9 #.! D.=.Z.1 1 0 1 & - uX@X^ E j.XX6.1 c g 6 &.xX",
"% . @ # 2 d . J @ ' 0 : @ @ ; &XaXn.a F - - :X7 kX: < # 1 a z (.M c H M w ~ s 0 G ( a.uXsXH.sX' 4 '.vXb | > b D V dXX.E.w w.- 7 ",
"# @ # = < & = & @ , 5 e & # & :X% 1 H = y 9 y 6 * ; H c >.k 4.E 1 L i  .T j w 0 j <.(.j 5 g #.d a w G # y.5 K i 0 K x ; C h M m ",
".   . + .   . . . O . o . o . +   .   .   . . o . . ; # X # # o X   . @ o @ e @ O + X   . O + @ ; @ . + . . O o + . . O > 9 , - ",
".XuX  M.}.<X.X X<XL.>X&X1XBX X X<X&X,XpXyXNXK.vXkXvXN.4 7 *X>XdXR.yXyXpXQ.dXuX`.R.=XaX_.2X7XT.3XD.).H.iX;XbXM iX{.T.:XNX3X,XH.dX",
"@ @ . pX<XLX;. XI.V.R.<XNXH.bXB { (.kXPX% c sXVX7XVX: C Y bXaXLX{ ;X;XK.IX).hXyXZX} | (.uX'.IXh >.wXDXaXUX* 9 jXN.yX9.Q._.AXQ.zX",
" .# . F.. ! J.>.5.' < - T ( uXL.! 3 qXd j ! uXP.2 / ~.t Y .Xh 9.8.E.T.' - s 1 ;.zXj.{ M y HXg h =X6.O.>./  .0 Q.dX~ 7XP.6X4 w n ",
"y :   G.^ }.1X*.N W.p.p._ l.d.$.0.=X6X%.$X4.` XX0.T.| o.( 4X3.d.=X{ 6.[.A.3.W.I.l._ (.6X( s H %.6.A.V.I.5.^ M 5XH.0 3X2XL I.AX[.",
"- M . 5.F.J.NXd.` 3. XJ.l.d.l.F.9.u.MXKX-XT.U.,X>X; / ; w R.G.K.w.T.d.2X#X|.P.G.f.HX+X^.J.[.%.W.2XQ.-Xx.0 U h _.sX8Xr.7.8X}.@X@X",
"& -.. ,Xl. Xn *.| F 5.r S 1 4 ` sXb -.XXd.k.( {.E 9 N 9Xm.).5X<Xw.9.~.~.u.2 ! XXq ^.U B H Y.>.E Y.9./.) / V | NXkXQ.FXA.@Xd.g.G.",
"- < O l..XVXp.q.F w.DXXXp.p.w 7X,XA j.E.F.d.%.|.>X4 F 8 k F.cXJXA.q.,.6.jX*.J.U.D 8Xv.*.9.z Y.^.z I.} C >.; C :XdXuXA.} B.$.^.! ",
"@.3 O  XK.N y 7.! 9.4.4.>X<X&Xa.:.G.2.G.$.1.|.,X` { < w $ V.*X; I G.9.Y./.F.j.@X+X-XS 1.A.P.q.-.$XZ.v | 0X8 $ sXI.9.U 8XN.j.N.z.",
"F $ # F.u.uX5.}.S $.2 n P y e n 2X` +X1.8X' Y.7.N.Q 4 v @ B.=XVX-.d.5.9XY.H - q 4 ( |.-./.W.2X_ Y.~.W.6X- @.w M.H.;.[ 2.n.$.k.c ",
"4 < # {.:XsX# C W 1 Q 9.Q E.<X> 2 n k.s.1XvXW.oX:.w e U * :XjXR.H f XXh y C.W.8.3X2XE o.*.^ 3 6X~ E.6 _ U O.> V.uXnX>.w 6.a.H X.",
"v & = 1XaX% H I t $Xv S e | H 1 Z ' V ! T , G > w >.) * * cX5X^ U mX- 6Xe U H B ! j  .M  .3Xd n.B f I w * ^ 9 cXgXH V [ 4 w VXF ",
"0 - % [ O 5 O 0 5 i 4 l 1 # H & e i 0 K H H *  .E o./ / $ 4  ./ - @.M w  .i  .) I M M g M e.U 4 1 / V  .r.M l NXa V e $ f v M @.",
"& - # U.* O O % & @ # > S q # O - 2 q m U H & g M ) V :.8.MX! 9 4 u 0 n 8 * n S C w I ^ sXMXP ^ v n I e n ) j +.O $ @ O O u * O ",
"3Xu.{ Q.p.7. X*XHX1 pX2X5.yX% # cXG.yXvXkX<X<XcXpX`.BX=XSXyX.X{.jX).JX-XuXE.HX).DX: kXuX8X].iXcXB.b.vXuXmX$X].3XI.T.:XB.;X#.iXMX",
"e R.N (.rXGX$ s 3  XX.! ) 1 & - >XBXgXDX_ C.H f ZXKX[./.A.DXb.GX> 7 k 5Xw N ; 9 u H D.V.JX!.yXZ.k.PXnXb.mXd.} n.Q._ DXk 4 7 LXJX",
"_ 9.%.D.[ 7.< HXv.KXC.cX_ 6.j + .X1XM.s F J.pXuXcX-XC.I.!.L.XXwXd S.5XmXHXuX` G & w 4XuXv.>.^ U.Y.>.A.N D k.(.A.{ n h O.(.yXzXhX",
"0.MX&.bX[ > & d.[ %.{.3.:.& K ; =X.X{ r ,X@X%X|.u.4.OX).=X{ M.S z '.i.-.2.{ Y.,.S c :XE.v.O.bX-Xw.h.-XA.A.S.6.lXd.gX8 [ | $.Y.+X",
"5.5.Z F ; >.6.P i.=.&.a.B c X.& aXR.s.VXq.3.f.K.h.u. XY.=X9XW.-.$Xk.6X+XN.Y.k.7 ) 0XW.9X8XuXA -X#X@X^.^.W.-X5.-.1.1.<./.W.8Xa.P.",
"G q J.Z 1 ;.Q $.4.< OXu.N H M @ *XkX;XW.H.jXG.@XH @Xn ;X~ ! ,XY.d.p.XXd uX2X!./ ..O.b.'.uXUXd.bX$XC.>.) >.X.U ^ p.%.0X:.q.^.a.7X",
"2.a.Q - 8.G.! N.i.a.=X~ G ' = & aX.X4 G.l./.X.M.i.:XXXXXe.q.F.7X~ $.d.t.-XK.' >.7 ~ ).A.KX8X<.FX<.'.~ ] 2X$.b Z.s.Z Y.@X,XY.sX<X",
"$.] - i.I.A.$.~ 2.G.G.SXj.; $ l <XoXR.7Xe g.I.8.q u.E.Q H.*X9X-XXX9.G.A.'.>.,Xa C t.uXS.uX:.^ P h.;.9.=.I.3XsXY.@.-.u.~ /.J.S.6.",
"6.] L.> - 9.t f 1 q t F $.Z.t 3 ;X>X].9.bXZ.Z.< m ` d.Y.oX> $.w.5.m 6.H 5.E.5.t.| ^ H.B.).^ v.s A.w.' ~.^ r.w.G /._ ^.Q.# I V.k.",
"# > @ # y t n * l 2 n t & n J 5 &X4XlXH | X.H _.mX=X- ! K c 1 6.S 4 ^ H ( m R ` 7 V yXuXnX@.7 7X> t.vX8X} | s C s X.9XjX| [ /.oX",
"3 y # % 3 - & : 3 0 M F s d S = rXt F : * H X./ v 1 S r V F >.m m 9 / u 2 U ..} I f [.zXC %.M 9  .f q 9 r r C 6.e.q H - ZXg 0 w ",
"/ 6.O o . . o . o o . o % o O C O O .   % o % ; O 3 - 1 k $ C f g 8 8 d C z O.X.F . U r ) v 4 7 7 X.M |  .) H 0 / M e 3 2 > o.H ",
"&X<X@ n s.XX,XR.,X<XH.:X;XpXDX1X.X.X;XR.;X:XQ.dX;XuX3XlXu mXcXD.iXMXb._.iXbXbXBX|.pXcXS.bX6Xp.bX5XcX[.A.,.Q + <X7.S.R.'.S.uX2X_.",
"n.% & ;.pX&X*.0.|.l.HX2XpXnXXXSX%.S.lXHX#.M 4XAX! `.n 2 9 cXcXGX6.3.'.0.[.n.:XzXSX{ $.HX;X$.LXN sXGXSX).GX# 0 BX2X].GXp.VX#.SXMX",
"6.J & 2..X- B a.J.4.G.d.! -.>.lXj.C.<.g / }.&X[.@X} o.u o.S.dX>X$XY.pX6.r.:.s 6.v.j.$.#.| #.b k I.O.m { b s > sXnXeXA.C.H.h.^ 7 ",
"L.V 5 9.{.$.< *XJ.G.F.>XH.,X}.z.-XA.!.T { ~ q.U.2.aXA F o.`.OXw.-X).b T.$XA.-XW.q.Q.DX6XwXKX6 7.y.oXA.T.!. ., ).)./.!.| C.bXKXFX",
"- % q.E .X{.>X2 Y.J.|.>Xd.s.3.8.F.N.K.AX X.X+X4XJ.D & n ; ).V.R.O.5.%.&.>X}.kX1.E.FXv.,X|.A.xX(.uXZ.V.!.K ) 7 kXM.).! 4.I.{ |.9.",
"= - k.G 8X&XMX1.:X~.L.Y.5.m g.n ' M.f.=.d.9.G H.2X` ^ y.j ].Z.R.PXP.<.W u.h.} /.' g.f { B I.7X8X>.w.-X(./ X.) bXI.uXFXl.0.-X'.XX",
"Z 1 c D |.|.` ;.l.9.4.{.|.F. X~ M. Xa.M.P.@XN :XXXF Z ~.4 4XC.FX+.q.BXd.kX!.2.7X:.9Xs.E.@X6.I.a.s kXA./ 0Xc U B.S._.~ a.5XW p.e.",
".X& M # .X>X'.z 3.K.3X<X{.{.&Xs.aX7Xa.N.d.&X2.zXA 6.7XV s :X3X:XD [ DX| HX@XG.;X;X,.N.$XI.8.).;Xd.9Xt.O.pXH e sX@X{ r }.[.! [.@X",
"E.o c @ &X<Xs.#XmX5.&.r 5.[ ] L.<.F $.|.'.c >.4.G.a.6X| @.:XpXmXE <X6.g.$.r.} e.w.7 A.,.w.] kXZ.sX7Xx.CX- n N 4XC.sXi.E.1._ L.V ",
"2 ' * - >X8X: 0 Q & G =X XNXf 9 H d e.8 hXy v $.r.hXr.M o.R.pXyXM G 1.n P 9X;X<.).[.z | | kX[.[.5Xv.! eX6 r.0 8XdXzX>.n.f.k.>.$.",
"t n : @ kX; ; $ - 3 H = 2 9 4 @ 1 d 6.U e - h 2 ) n G v f iXrX) ) n.V 2 f H j r.6./ e.7 r.h.a (.( S B @.) 1 O iXBXC 9 ,.n B O. .",
". o . o .   . O + o @ O # O # O @ $ @ o : - @ % - 9 + O % > 8 $ + 7 i > ; k > ..$ @ g a U H o.# / B B / 6 ' O kXC # d C 4 V I o.",
"8XH.tXF.J.-.3.aX8XSXZ.dX;XcXyX% 4X X,X;XfX.XoX;X4X;XNXcX*XpXT.R.9XH.sX:XpXkXyX4XV.% A.V.S.;XH.;.( *X_.A.<.m pXyXuXg @ # D @ B % ",
"<XH.0.^ m O.vXPXa - VXGXQ.HXM # 4X2X:X( 3X_.O.lXNX).K.MXoXDX6XY.H.SX> 9.'.jXw.S.k o ].9.aX].jXD.dXkX4Xv.VXN.uXp.&X8.*XkXlX+XS.&X",
"z ] $.A | q DX- | oXC.T.j.^ %.0 pX*Xr.$.Q 4X' Y 7 ..w.MXu.] HXr i GX.._./ ) b t.j 4 V.jXGXxXA.1.~ n.yXKXn.E _ lXP.SXc.@.| uXw.M ",
"u.J.2.{ <.pXSX5 ~ Y.k.s.R.q.U = *XM.s F.+X' *XK.[.N.E.i.-.BX8X} SXr w.PX,.yX|.^ s # sXuX@Xd } -XD.BXlXA.A.~.V.;.P.m.> mX<XmXDX,X",
"4.P.=.( ^ D ; ,.X.z.6.d.4.V O.r.<Xf.K.@XQ M.G.$.@X|.U.5.SX'.2.E.Y.HX3.|.G.Y.^.M G a :X7Xu._ ;XN.!.d.Q |.W.DXXXs.+Xr _ ] j.-.,X@X",
"O = ,.# 2 m ^ [ p.9. XM.2. .! x.yX&XF.GX9.,Xs.+Xq.D OXk.>Xc } ~ @XT.u.h.P.oX>...V > ].:X'.KX/.XXL.I.}.d.W.F.3.5.Q $XXXJ.*XJ.pX,X",
"l.] 5.@ 5.q.p _ L.P.f.oX- >.z.S  X|.:X$Xw.oXa.-X) H.+Xd.7X7X~.9XE.8X+X; B.G.! y.B # 2X).S.Y.G.lXA.4.S 3.^.2Xh.! Y.4.a.j.K.^ oXY.",
"4.j.B q.-XA 3.~ I.J.N.s E }.r w pX.X<Xf.^ cXA.GXf.N.yX2.L.'.Y._ +XK.2.-X8XH ~ j.) / D.-XN F 1.,./ BXG.0.L.2.D ` F.9.9X}.+Xy.E.4 ",
"C.$.P.>X# [ ; ; q 6 b 2.9.w.S o.dX<XH.S H.p.4.K.%.5.!.m ~.$.T.i.N.A.Z.L.q.N.CXS Y H E.H.3X/.%./.C.N.F Z _ [ ~ .X@XJ.9XJ.M.:X-.5X",
"+X* h # 5 c ^ % 2 G ^ ^ 9.r O s cX XcX2 ' Q.4 ] p.E.N.5X2Xm | { sX<XQ.6XH.6.v.I m k kXyXb.] r.g._ r.[ 3XaXI.;Xw !.}.[ P 6.{ X.j.",
"% & < i i 1 H @ !  .6 ! J c ~ # yXNXj d F ) / c >.K r I | n >.w.7 M w q / w.| ~ 8 U jX].B ) gXr ~ r } } g r.z ' 6.E ^ $ A |  .A ",
"# % @ O . . . . X . O O = # 5 O @ o % O @ . 3 ; : K ; > O = 6 o.; ! } ..H b F t.n 9 VX) r.{ / s $ } H n %...X...S ' 6 M V t { 7 "
};
