/* XPM */
static char *_294_55068e550e4f32de577193220e1c1f65fdb0fcf5cb7f88c8454efd39c0402aa3[] = {
/* columns rows colors chars-per-pixel */
"64 64 256 2 ",
"   c #030202",
".  c #090101",
"X  c #070507",
"o  c #110201",
"O  c #190202",
"+  c #1A0A0A",
"@  c #150809",
"#  c #181213",
"$  c #080C10",
"%  c #220301",
"&  c #2A0301",
"*  c #220908",
"=  c #290906",
"-  c #390401",
";  c #370805",
":  c #250B11",
">  c #291515",
",  c #341715",
"<  c #340F0D",
"1  c #2B1A22",
"2  c #342226",
"3  c #362D35",
"4  c #232522",
"5  c #420300",
"6  c #4B0C08",
"7  c #480903",
"8  c #520A01",
"9  c #5A0B00",
"0  c #560B07",
"q  c #4B110B",
"w  c #53120A",
"e  c #5B120B",
"r  c #591203",
"t  c #461615",
"y  c #531410",
"u  c #591812",
"i  c #420F10",
"p  c #630B01",
"a  c #63130A",
"s  c #6B1309",
"d  c #671607",
"f  c #7B1B0A",
"g  c #741609",
"h  c #631A13",
"j  c #6C1B12",
"k  c #661813",
"l  c #731C12",
"z  c #7B1D12",
"x  c #761B17",
"c  c #4F251D",
"v  c #6B2219",
"b  c #7C2113",
"n  c #7B221A",
"m  c #762419",
"M  c #493536",
"N  c #4F2E2D",
"B  c #672722",
"V  c #792924",
"C  c #74362F",
"Z  c #704439",
"A  c #493947",
"S  c #564749",
"D  c #584C54",
"F  c #4E4A56",
"G  c #695252",
"H  c #5B5464",
"J  c #665B69",
"K  c #6E5865",
"L  c #776769",
"P  c #7B7479",
"I  c #6D6870",
"U  c #5F6167",
"Y  c #292C42",
"T  c #831C12",
"R  c #881E17",
"E  c #851A09",
"W  c #832313",
"Q  c #8C2313",
"!  c #84241A",
"~  c #8C2519",
"^  c #85291B",
"/  c #8C2A1B",
"(  c #8B2916",
")  c #942B1B",
"_  c #9B2C1C",
"`  c #942517",
"'  c #9B321C",
"]  c #A6341C",
"[  c #842A22",
"{  c #8B2B22",
"}  c #872926",
"|  c #942C21",
" . c #9B2D22",
".. c #8A3227",
"X. c #953223",
"o. c #9D3324",
"O. c #943329",
"+. c #9C352A",
"@. c #9D3A2B",
"#. c #983929",
"$. c #9A3B32",
"%. c #863633",
"&. c #A43524",
"*. c #A4352A",
"=. c #A53B2B",
"-. c #AC3C2B",
";. c #A93725",
":. c #B33D2C",
">. c #B83B27",
",. c #A53D31",
"<. c #AC3D32",
"1. c #A53C39",
"2. c #B53E33",
"3. c #A42E25",
"4. c #9C4337",
"5. c #844034",
"6. c #AB422C",
"7. c #B3422D",
"8. c #B7442C",
"9. c #A54234",
"0. c #AD4233",
"q. c #AB463B",
"w. c #B44433",
"e. c #BB4534",
"r. c #B44934",
"t. c #BB4A35",
"y. c #B44A3A",
"u. c #BC4C3B",
"i. c #B9463A",
"p. c #BD513B",
"a. c #B5513C",
"s. c #A7513C",
"d. c #C34D3C",
"f. c #C64937",
"g. c #C3523D",
"h. c #C9533A",
"j. c #D6573E",
"k. c #C7482F",
"l. c #984E4C",
"z. c #AC4C43",
"x. c #B94D43",
"c. c #BD5242",
"v. c #B95648",
"b. c #B25850",
"n. c #AC6557",
"m. c #835472",
"M. c #877778",
"N. c #8E7271",
"B. c #AD6E6C",
"V. c #84655A",
"C. c #C45343",
"Z. c #CC5543",
"A. c #CC5A44",
"S. c #C55A4B",
"D. c #CD5B4A",
"F. c #C65747",
"G. c #D75B47",
"H. c #CB5D51",
"J. c #D65D51",
"K. c #C64D42",
"L. c #CD614B",
"P. c #C96147",
"I. c #D8634B",
"U. c #CE6352",
"Y. c #CA6558",
"T. c #D56352",
"R. c #DD6C5A",
"E. c #D96955",
"W. c #DB715A",
"Q. c #E86A55",
"!. c #E77359",
"~. c #E86B4D",
"^. c #DC7666",
"/. c #D2736A",
"(. c #E97A66",
"). c #F17A69",
"_. c #E15C44",
"`. c #C03F31",
"'. c #97867C",
"]. c #AF8578",
"[. c #D48776",
"{. c #EB826B",
"}. c #E98675",
"|. c #F88B73",
" X c #797888",
".X c #736E87",
"XX c #6A6183",
"oX c #867886",
"OX c #8B7B91",
"+X c #AC6F93",
"@X c #C57C85",
"#X c #7690A4",
"$X c #8B858C",
"%X c #988889",
"&X c #898999",
"*X c #968C97",
"=X c #9B9599",
"-X c #94918C",
";X c #A89798",
":X c #AD9190",
">X c #B2AC98",
",X c #9398AC",
"<X c #A79BA6",
"1X c #BD82A5",
"2X c #97A6B6",
"3X c #A9A6AB",
"4X c #B9B5B8",
"5X c #B3ADB0",
"6X c #94A29C",
"7X c #D59388",
"8X c #E99586",
"9X c #F79888",
"0X c #EC978B",
"qX c #D7A793",
"wX c #FAAA99",
"eX c #F0A693",
"rX c #C6BAB6",
"tX c #D3B0AC",
"yX c #EFB2A8",
"uX c #CFC8BD",
"iX c #EEC9B1",
"pX c #A6BAC8",
"aX c #C7B9C7",
"sX c #D1A8D7",
"dX c #B7D0D7",
"fX c #C7C5C8",
"gX c #D6CACA",
"hX c #DAD9D9",
"jX c #CFD4CF",
"kX c #E9D5C8",
"lX c #E7DBD8",
"zX c #F5D5CC",
"xX c #E9E5DC",
"cX c #F9E6D7",
"vX c #D6DEE5",
"bX c #ECDCED",
"nX c #DDECEC",
"mX c #E5E6E5",
"MX c #EDEDED",
"NX c #EAE8E9",
"BX c #F5EEEE",
"VX c #F7EAE6",
"CX c #EFF5EB",
"ZX c #F6F3EF",
"AX c #FEF5EE",
"SX c #EDF6FA",
"DX c #F6F5F5",
"FX c #FCF6F5",
"GX c #F7F9F7",
"HX c #FEFBF6",
"JX c #F6FDFD",
"KX c #FDFDFD",
"LX c #FBF6FB",
"PX c #F4EEF4",
"IX c #D9E2DC",
"UX c #B5CBBD",
/* pixels */
"jXnXLXO 5 w ( C _.' -.i.h._.j.) w.t.W &.Z.-.G.d.a @.*./ / b -.- b ) l ( =.~ u.^ / y.{ Q.V j c.{ *.7.I.v.4.$.z } *.w.$.i OX=XcX. ",
"aXmXbXV m a e e l m [ s a ! l z ) e 7 < z g O.a k } | y x w.m ~  .&.8 C.{ ,.D.i.0.O.a m  .d.U.E.= v j u h / O.$.Z.+.! 6 A /.B > ",
"MXsXm.i q.< ; 6 l x [ 7 x z V / x n >...x m ! j b ^ i.=.~ @.p G.V e.i.{ /  .o.-. .{ w.6 { 0 @.h._ S.P.j.+.s z 0.x.G.*.v *XLXB.^.",
"hXL : { o o . V 8 ! 0 x ) 9 b O m l p | *.8 k 9 ! 5 +.w % | r t.m m W @.O.w.T.w <.W < & *.o.9 =.! ( v I.*.:.h.$.. O @ $.+X>XI X ",
"1 A c c       f h v h ;.-.| y f j l m W x ^ ( a ) ^ <.b / w +.^ { / r...y O.0.7.c.A.e.y.l f.y.F.).f.j 9.f 8 ,.. A.% @ C 1 LXNXS.",
"A P IXn.  @ r { *.- O 6 +./ { / ) j.O.s o.u.g f $._ p l s E.o.;./ @.c.z.B . * u o.4.6 O i.g.i | 0. .( 6.*.p.d.+.= X G + l.5XFX/.",
"oXXX:XmX      < 6 V . B f.*.p { B   v +.0...0.= ..,.< x G.b #.O [ & S.O 5.o & * b.. y 5 =.& G.X O T.0.V w.q.9.! j # M < GXKXJXKX",
"hXjXHXFXz.X =   > @ < . y = % . N X , X .     ] %.I.O j # . . = @ C w O   + 2 O # Y.% @.... + [.> O . D.x.$.O * c o , tXDXrXNX> ",
"L M.sXxXCX; cXl.@ o N.= V.@ + G 2 M N., o * N.< # @ o A D G < N.M.# H S G     + . . * . X , , X M C L + 2 = + X > oXN l.PXnXSXFX",
":XJXmXHXmXu O 5XNXF D D D D . D 1 J H 5XP L S F D I M.=X. $X>XP oXc X %XA 1 %X=XN.A L .X: , G A 3 G M.B :XN K =X,X*XhX$XSXMXLXnX",
"AXMXHXZXxX:XVXGX; FXFXHXHXFXS $XF gXBXBX=X-XK HX;X5XU 3X%X5X-X2 HX&X>XXX@ %X=X3X XDXHXlX*X,XBX:X<XKXaXD ;X.XgX&XLXKXKXHXJXLXKXmX",
"xX@Xn.g.n.[.F.G.E.S.qX8X[.7XR.lXxXY./.}.n.( P.AXFX7XcXP.HXGXkXhXz.tXHXJXhXJXLXcX4XMX:X=X3XoXN vXlXC DXKXlXKXKXKXqXFXkXHX/./.7XcX",
"| e / x 7 3.+.e.e.Z.E.T.J.L.w.wXV R.*.$.+.j j T.7.C.u.0./.q.w c.D.v.4.LX4XhXjXDXJXjXrX4X:X%XHX<X4Xb.[.AX8XqXU.}.Y...].N C x.eX8X",
"e u { r.;.Q l s | W W b :./ E W n e }.9 9 E.T.E.4.t.x.h.h =.E.| U.Y.Y.z.JXJXZXFXcXN cXHXHXyX0XzX7XL.8X}.E.r.y.q.W.9X9X{.}.9X0X(.",
"! | T _ p V i.~ -.~ ( _ f Q =.w.x.T.~ d.D.A.U.{ L.,.0.c.j a.y.T.@.P.q.$.gXKXKX4XY.kXn.iXeXyX8Xb.2 E.y.=.v.W.y.L.p.v.T.r.4.T.P.w ",
"6 5 7 l +./ ~ { s z ! / q.*.) &.k [ &.;.@.x.X.O.-.6.<.) h.4.p.D.v.c.$.wXoXLXZXIXtX{.D.zX7 x.V T.n.n.r.p.T.X.(.y.=.q.u.p.F.0.v 9.",
"s 7.- 0 s { T Q -.-.=.| _ w._ >.g s @.b *.h.w.R.( =.+.o.X.W < q.,.x.y.DX#XSXKXKX(.,.q./ {.& O ,.h.c.D.K.T.bX*.H.-.~ (.S.!. .y.P.",
". :.W % ' W ( s T O.z g ! ' ) T c l / o.I.m 0. .! A.' h.;.;.~ y.Y.0.+ ^.,X4 mXVXh ,.U.zXt.n y.q.C.=.C.i.C.u.H.O.y.x !.!.t.r.P.>.",
"s { ` ; O.T l s Q X.g l f / l i.d.j.p 5 8 &.l Z.h f 9 8 y.0.@.c.Y.v.7 S.H LXIXGXY.H.P.^.*.E.q.F.y.!.r.0.{ u.).s g m y.] F.V q.a ",
"a k t._.v a a a d  .X.O.' ) ' . 7 ;.X.u :._ i.{ g ] O.O.g R.A.O.i.).Y.z. XLXJXJXLX$.v.6.(.v.p.t.*.6.u.7.y.o.y.y.[ d.x.g 4.D.u.A.",
"5 | l 7.v ; | n f Z.p 6 w ! n G.~.~.h.f.s Z.z f l t.) [ c.{ x.u.( . t %.F vXfX3XDXK.J.! 0.i.v.t.G.L.=.p.F.0.x.#.+.c.h.m -.Z.u.e ",
"+.O.T x -.o.m d O *.8 *.f X.W _ 7 & 0 6 @.0.u.k.u.-.} h...w :.Z.@.0.$.:X4XKXKX=XmXH.+.i.E.0.T.6.E.w.h.p.^ ' 8.8.g I.r.&.0.d.f.!.",
":.& O 7 b d l =.w ) ! m 7 b { ( 8 f | :.g.=.e ! Q a E ( Q S.l <.D.S.S.jX&XKXGXKXLXF.(.I.e.|.p.-.g.9.=.@.u.p.#.' 7.) L.C.W ! ) A.",
"s ~ f.Q e o.- X.=.x { / p *.n 8.7 &.d s !.y.u.g 8.E ' _ ) z ` T. .,.S.3X5XJXMXBXKX1.R.~ n y.r.A.;.-.,.7.I.k.E.p.S.g.F.; Z.T.V h ",
"7 z u 5 e *.r.8 | g u m 7.=.[.p n X.8 / W.A.) W u.r.r.| 9.m i.!.+.0.m P NX;XGX3XM 8X|.y.J.= A.] A.O.g.9.p.h.&.q.e w.i.d.D.6.9.0 ",
";.0 o.r.q n a l >.:._ a d @.r = #.L.l 6.` F.( a.D.^ A.~.t.6.I.c.T.H.< gXhXKXJXKXjX(.eXK.% q.=.e.g.y.-.p.o.8.{.0 p.X.!.t.r.I.6.t.",
"P.a.u O t.O.. W  . .]   o h.^ L.z o Z.;.j l G.T.!.l.#.B = I.U.a.O.B.< oXn.jXKXhXDXJXx (.F.L.,.4.9.j ,.0 L.D.- C.O.r.x.S.q.h.D.9 ",
"%.  M + * . . - O . + o @ > O @ . . o + * B t 8X> < .   P N , Y./.A N 3 FXDX3X2XJXLX(.[ D.9.).O.: t.0 !.!.v m C ) z.c @.s =.7 0.",
"1 # M N 2 3 A # 1 . X + > . K G P K K -XM.I =XD oX3XJ I *X3XP -XD aX<XV.LXfXJXhXKXjXX M V U.t @ > o . } *.; , B.. N.G Z u T.S.+ ",
"3 I S A LX# FXHXU oXU H 5X;XKX XoXmX$X$X<X,X$X=X X#X=X4XdXbXF NX4X5XmXHXjXLXNXGXfXJXKX$ A F *X;X-X3X%XM OX1 :XS *X<X+ <X+ $ M.M.",
";XLX4XLXI $XFXMXjXfXU CX4X3X6XZXJXMXrXKXGXNXKXKX-XjXKXPXJXM.KX5X5XI KXKXuX3XvXKXKXKXKXGX2X2X$XI mX2XP *X3X&X#X&XLXLXKX*XgX4X:X,X",
"'.mXH tXUXF DXM.GXJXnX:X*XP HXtXDX$XN.xXLX-XlXrXGXDX:X>XhXfX;XhXFXPXKXlXjXFXHXGXHXNXmXDXaXLXDXKXLXmXDXMX XKX3XaXmXgX&XLXKXVXFXFX",
"4.ZX4X4X5XGXmXrXlXKXmXHXDXJXLXFXJXAXkXuXKXDXuXM HXVXJXkXVXcXVX-X>X8X0Xl.qX7X7XzXDXFXFXFXVXFXfXKXKXHXFXtXyXtXqXLX/.MXFXLXDXfXDXxX",
" .c.9.<X4 KXLXMXKXVXX ].7X}.n.wXT.(.O.0.w r.W.S.1.^.v.^.U.wXW.z.[.} z.}.(.x.z.b.b./.^./.z.*.0.8XHXtXyX..%.(.}.9Xb.eX8XwXY.n.vXLX",
"j *.. N.U J KXMX=Xx.q.Y...O.e.*.w.=.S.$.t.K.-.w.l d.p.+.O.A.x.=.} {.@.l F.d.1.1.(.<.}.} ; q.v w.S.P.g.S.T.9XW.p.H./.7X|.^.9Xb.NX",
"! r.v . , hXFXLXJXr ..; s k -.*.) y.' ).W { +.g.` ^.d.&.I.-.8.r.A.*.d.= Z.$.s D.i.C.C.m E.R.9X9X| D.O.-.[.a.x.*.H.Y.0XR.R.z.Y.SX",
"Q.Q Z.o C hXLXLXJX~ <.@.a ;.~ ,.| ! { l W =.a h.f.*.E.E.I.F.) ` t.L.0.!.t.E.Z.6.p.r.A.!.S.-.u.E.F.g.h.&.=.g.c.0.=.W.T.F.T.H.4.[.",
"{ s 6.B %XbX;XLXxXu ) O s & W a i.Q ) 8.*.` ;.t.( @.9XZ.I.f.r.t.9.Q C.t.Q.=.R.g.E.).A.p.u.i.g.g.) i.F.D.c.0.=.S.*.^.+.R.K.C.x.B.",
"R ;.d.; +X%XHX1XVXu ;.w.,./ t 0 @.r.[ =.' ' o.).t.7.' k.g.-.h.D.!.w.!.o.8 F.).I.d.p.g.w.D.Z.t.D.A.d._ F.9.] C.P.6.F.g.-.!.F.c.S.",
"f Z.  4.K ;XhXJXLX5XX. .g q.R w.r._ *.r.3.i.r.;.7.h.) d.h.u.8.` Q C.w.u.X.h.t.f.Z.T.>.C.9.w.x.' D.r.] I.=.C.}.p.h 6.v.W.x.y.R...",
"s G.2.@ yXI hXMXLXf.; e x ~ b f Q =.&.0.r.&.;.r.;.h.8.w.p.e E ( ! T.4.p.7.-.w.8.h.` D.D.G.h.J.6.7.6.g.g.^.D.u.Z.6 p.6.F.I.q.q.q.",
"e.>.m . N   MXSX>X}.(.,._ e k g  .=.=.T -.o o.:.e.Z.-. .7.^ 6.i.-.8.w.C.h.t.:.D.D.t.8.g.t.i.g.u.;.z &.C.] u.O.d.@ &.d.D.).v.! L.",
"9 g O . + U LXLXN.A.& - | s 7 &.w e n ^ +.p ) b ) W 8.f.t.r.' g.p.e.i.u.t.g.6.&.w.7.g.u.5 _ C.:.0.(.O X.t A.U.C.t.P.I.0.u ,.v 4.",
"T ;.. z.X LXmXD AXC w.; T 7 v e 9 g | e l ) _ +._ u.7.=.0.t...r.r.' d.u.=.i.7.d.w.h.u.&.!.g.o.R.u.6.W R.W p.p r.r.0.=.6.F.=.{.c.",
"X.x f   O oXL MXxXt AX' = % &.5 h.^ s 7 O w 8.z =.f (.j u.-.G.$.8 p.| 0 C.t.t.r.d.e.-.F.. X.{.p.e p.!.C.f p.r.p.^.) @.).6.r.L.q.",
"7 / f.. S > KXfXKXJ '.9.k ..a O V w v.O ' s {  .W Z.{ $.n r.b r.A.h.d.' w.o.&./ x.=.b 6.{.A.qXf b E.y.E.6.] D.y.( D.#.m S.^ U.D.",
") ) ; N L GXbX1XJXmXNX@ [ 9.8 0.o @ . d ) :.e.=.n G.=.-.*.+.( ! / j ,.f <./ i.-.w.| / !.d / n 9.{ |.iXK.7Xa.;...f n *.|.v <.*...",
"p qXp.%XF P I L KXG # JXB.= uX;XD c nX& [ ).=.o.b ,.z.-.b G./ o w h l u l p 7 W $.) Y.@.7 ^ v.S.U.D.v.9.V { ) 4.; b R.n H.R.v.(.",
".   . > A .XLXLXNXKXmXNXhXLXPXtXDXMXDXM.FXI.(.j F.Q.|.).(.o.G.i.p.9Xh v.t.j 1.B Z $./.(.(.g t |.c < 9Xq y ).Y.H.v ,.i , |.(.H.G ",
"3 S 3 Y F DXvXjXKXLXBX<XLXLXLXLXJXtXKXjXJX3XJ .XU ;XG 3 X %XL   M *X3 *XH *X$XM.I %X1 M oXA A : A O N K 3 H A K A L H 2 oX X&X2X",
"M.aXuXGXOXBXjX+XDXFXCXBXJXPXNXZXKXZXJXIXgXKXDXmXCX#XGXZXKXKXnX2X#XSXJXSX#XdX2XF I H .X#X XaX<X2X2XjXNX#XJX5XpX,X,XKXdXKXnXJXLXSX",
"B./.gXFXbXVXAXhXxXxXVXVXFXFXjXMXCXKXDX>XxXNXGXNXxXgXkXrXSXKXKX3X#XnXLXJXJXjXKXIX&XaX3XLXmXNXHXLXDXgXJXvXLXnXvXLXLXKXLXKXJXJXfXMX",
"{ ).q.c.^.@.z [.5 =._ 7 G.H.{.R.p p.D.^.cXzXHX@XHXlXJX7XBXqXcXLXAXJXAX].KXMXVXJXLXKXKXGXKXKXKXLXKXHX7XZXzXcXqXVXVXLXkXAXKXLXgXPX",
"q - h T < u.:.S.>.e.7 O.!.x O.0 0 &./ C.! |.Y.2.t.R.^.!.zXx.T.u.eX^.b.iX/.M.NXLXLXLXhXKXFX^.l.^.^.} (.$.|.9X9XY.yX^.0XeXeX9X).D.",
"T J.<.u J.- i f.{ ` d {.=.o w F.~ x ) *.e [ - e.u 6.g.r.:.| i.D.|.F.f.9X[.Q.n.fXLXfXNXv.Y.S.D.! Y.*.R.^.S.|.^.R.Y.}.R.C.U.(.^.u.",
"qX  3.y 7  .z B y T a +.s.p k.G.& z _ f.G.p e.K.W !.-.G.=.7 7.T.j j ! w.S.x z.MXhXLXyXY.R.).R.u.^ S.H.T.7 T.E.S.p.w.} ).T.D.(.T.",
"f 0 a V g j.b f.7.f.7 Q.h. .x Z.l ;.. y i.k.Z.8.E j...yXV m j i.@.I.).C u % 1.fXNXBX|.Y.C.x.^.Z.Y.x I.d./ r.:.q.G.9.W.t.R.).8.j.",
"& % } E 7.& v ;.: e x 8 0 i T . e.2.8.Q.O Q.h.k.& !.< j 0 ) | |.k.g.h % b.= q.< DXKXpXB +.K.e.$.p.u.D.,.2.t.*.X.!.' ) e.| G.i.j.",
"k k 9 O.m z m j.:.0 ` <  .~.g g |.>.% <.v 2.s [ 8 ^ `.8 E ).Q.Q.x b <.b R |.~.N 3XLX< J.{ 0. .[ z.J.Z.;.u._ r.T 3.I.G.A.d Z.| t.",
"w y ; -.; T ) 7 Z.0 f.h.3.j >.j.<.{ G.6 - 7 e k.h.;.>.5 d ~.h.-.G.o.<.:.4.h.O G PXLXi.|. .w.a  .=.o.x./ -.=.V G.0.g T r.-.) =.) ",
"y ! - g k d j ] 6 C.~ w p j._ _ >.*.;.s | | 5 0 r.l 2.k.g 9 >.G.) 2.l p a x l tXSXKXwXR.A.T w.<.x +.@.r.7.] =.f.;.-.b o.=.a ( @.",
"j - ; - g e 0 7 7 ! _ R ~ s &.f.| l 0 l *.k.! x 3.u.7 f 8 l K.k.g ;.e.O w.w.% aXHXMX8X2.o.+.*./ ^ / /  . .$.-.=.k O.s Q -.) 8.Q ",
"7 [ j w j - - 8 ` s m k O f 8 R ! a [ ) ` I.7 h.o f.) 7 o 2.h._ G.) g ;.e.G.%.gX:XCXi.C.<.0.) / 6.h.! { o.o.&.i.e ) O.#.l ) T -.",
"; w k j q p m z 7 / l 6 8 a R q G.x ] l O.{ G.R 3.. [.3.g 9 e _.).f.J.r k 7 8 <XLXVXZ.<.2.-.) ~ h n i.2.) ` X.O.w.O.o.,./ ' /  ."
};
