/* XPM */
static char *_1214_6865339822d0bdc59cb276fd9a25a151f37c2261eb909a34eb2dd57e88b130ca[] = {
/* columns rows colors chars-per-pixel */
"64 64 256 2 ",
"   c #080300",
".  c #060504",
"X  c #100300",
"o  c #180400",
"O  c #100801",
"+  c #180900",
"@  c #110A08",
"#  c #180B08",
"$  c #140508",
"%  c #181008",
"&  c #1A1310",
"*  c #150B10",
"=  c #210900",
"-  c #210B08",
";  c #291200",
":  c #22140A",
">  c #281609",
",  c #311A09",
"<  c #331900",
"1  c #261912",
"2  c #311D14",
"3  c #362107",
"4  c #2C2218",
"5  c #362617",
"6  c #392A22",
"7  c #3A3426",
"8  c #462505",
"9  c #432914",
"0  c #473216",
"q  c #553817",
"w  c #542F08",
"e  c #663B12",
"r  c #6C3704",
"t  c #432E22",
"y  c #433223",
"u  c #493828",
"i  c #553A28",
"p  c #4D3D34",
"a  c #453A33",
"s  c #553D34",
"d  c #421C00",
"f  c #684418",
"g  c #774917",
"h  c #735113",
"j  c #594429",
"k  c #4A4139",
"l  c #5B4A3C",
"z  c #574537",
"x  c #584D36",
"c  c #674828",
"v  c #764B25",
"b  c #795326",
"n  c #664B36",
"m  c #6C543B",
"M  c #6A5634",
"N  c #775836",
"B  c #6A532B",
"V  c #776338",
"C  c #594A45",
"Z  c #5A5349",
"A  c #6A5445",
"S  c #6C5B44",
"D  c #655649",
"F  c #755B46",
"G  c #6A5B54",
"H  c #6C544B",
"J  c #73634B",
"K  c #7A6548",
"L  c #786757",
"P  c #706956",
"I  c #7A7666",
"U  c #746B66",
"Y  c #843800",
"T  c #894F13",
"R  c #895929",
"E  c #875B36",
"W  c #8E5529",
"Q  c #976529",
"!  c #8A6438",
"~  c #986836",
"^  c #9B7338",
"/  c #88692D",
"(  c #A56B35",
")  c #A87539",
"_  c #B4763B",
"`  c #AE6D2B",
"'  c #A06014",
"]  c #C27838",
"[  c #845D42",
"{  c #886848",
"}  c #976A45",
"|  c #8C724B",
" . c #9A7649",
".. c #866B55",
"X. c #8C735A",
"o. c #887557",
"O. c #957553",
"+. c #9D7C5B",
"@. c #977956",
"#. c #966E52",
"$. c #A67947",
"%. c #B57C48",
"&. c #A57D5A",
"*. c #A67C53",
"=. c #846E62",
"-. c #837362",
";. c #897868",
":. c #947C62",
">. c #987B65",
",. c #897972",
"<. c #957D72",
"1. c #A27D60",
"2. c #AE833D",
"3. c #C08136",
"4. c #99835B",
"5. c #9F814F",
"6. c #AA8448",
"7. c #B8864B",
"8. c #A88559",
"9. c #B68857",
"0. c #B99458",
"q. c #B09754",
"w. c #8D8469",
"e. c #9D8463",
"r. c #9C846B",
"t. c #988767",
"y. c #8B8775",
"u. c #9D8C72",
"i. c #998777",
"p. c #9C9379",
"a. c #9C926A",
"s. c #A58462",
"d. c #AD8B63",
"f. c #A58B6B",
"g. c #AB8C6A",
"h. c #A68766",
"j. c #B58C66",
"k. c #AA9569",
"l. c #BC966A",
"z. c #B69667",
"x. c #A78C76",
"c. c #A59374",
"v. c #AC9374",
"b. c #AC947B",
"n. c #A8987A",
"m. c #B39474",
"M. c #BB9571",
"N. c #BB9C7B",
"B. c #B69978",
"V. c #B28F70",
"C. c #B9A37A",
"Z. c #AAA27B",
"A. c #C58947",
"S. c #C58E57",
"D. c #C8955A",
"F. c #D49B58",
"G. c #D08F4E",
"H. c #D9A25A",
"J. c #CBA65D",
"K. c #C79968",
"L. c #D69B66",
"P. c #C29C74",
"I. c #C39D7B",
"U. c #C89B74",
"Y. c #CA9668",
"T. c #CAA469",
"R. c #DAA767",
"E. c #C4A373",
"W. c #C5A37C",
"Q. c #CAA779",
"!. c #D7A877",
"~. c #D8B47A",
"^. c #CEB177",
"/. c #E5AB75",
"(. c #E6B57A",
"). c #EDB26E",
"_. c #E49F62",
"`. c #968D82",
"'. c #9C9786",
"]. c #96968B",
"[. c #A99886",
"{. c #B39C84",
"}. c #B69C88",
"|. c #AA9D94",
" X c #AF9A90",
".X c #9EA291",
"XX c #AAA389",
"oX c #B3A38B",
"OX c #BAA38A",
"+X c #B8A788",
"@X c #AAA697",
"#X c #B8AA97",
"$X c #B9B497",
"%X c #BDB28C",
"&X c #B9B3AA",
"*X c #C59E86",
"=X c #C3A584",
"-X c #CDAC84",
";X c #C4AC8C",
":X c #C8A887",
">X c #D4AC83",
",X c #D7AB87",
"<X c #CAB38A",
"1X c #DDB284",
"2X c #D5B38C",
"3X c #D8B68A",
"4X c #C7AC95",
"5X c #CCB395",
"6X c #C5B19C",
"7X c #C9B79A",
"8X c #DDBA94",
"9X c #D6B898",
"0X c #D6AE95",
"qX c #E7B987",
"wX c #E7BD97",
"eX c #F4BD89",
"rX c #C9B9A7",
"tX c #D8BCA7",
"yX c #CDBBB4",
"uX c #BBC1B0",
"iX c #D8C39B",
"pX c #D3C491",
"aX c #E9C389",
"sX c #E9C799",
"dX c #F9C996",
"fX c #F9CF94",
"gX c #CAC2A9",
"hX c #DDC4A5",
"jX c #DDCCAD",
"kX c #D7C7AA",
"lX c #CAC7B6",
"zX c #D8CBB8",
"xX c #DCD4B9",
"cX c #DED6AA",
"vX c #EACBA7",
"bX c #EBD4AC",
"nX c #FAD5AA",
"mX c #E9CDB5",
"MX c #EAD7B8",
"NX c #FBDCB8",
"BX c #F6CCA8",
"VX c #FDE6BB",
"CX c #F7E7B5",
"ZX c #DCDAC8",
"AX c #D3D6CB",
"SX c #EEDCC6",
"DX c #EAD8C8",
"FX c #F9DEC7",
"GX c #E6D7CE",
"HX c #FCE8CB",
"JX c #EEE7D9",
"KX c #FAEBD7",
"LX c #FEF7DA",
"PX c #F1E8CC",
"IX c #FDFCED",
"UX c #F0EBE6",
/* pixels */
"}.f K.w ) ~ ~ wX*XA.T R A.X M j.N.{ B.@.z <XB k.z.$ s.d.m.n p ,Xe { !.k a c.z g U.P.s.*._.$.n s.o x.9 z h.rXx.>.E h.b { ; o #.s.",
"T f.!.~ Q 9.~ $.+ W /.7.2.O 3  .B.} 4.k.>.5XN -XaX# N E %.G.$ U.{ { r.;.l 9 x A.g wX&.BXL.D.*X>.SX@.:Xq # u V.[ W m j.W W ) ( (.",
"N F I.R 8X&.@.o s   >X7.D.9.P.hX$X@   9 = . 3 9   =.r.& $ F }.tXv.4X=XW.v.tX6 S.qXV.j.&.] _ NXk BXC.kX4XN.b.[.S.wX0X9.Y._ L.7.).",
"%.h.}.r 1.p &.*.} K.!.) ( $.7. .! m N ! 8X! <XsX<.OX#XrX;.-.x.i...n.X.#X{.m.  ! 1.U.&.g.G.!.U.s FXW.}.DX8XvXX         r.s { 9._ ",
"W r F #.%.- h.x.R 0.) 9.D.K.R $.D.j.8.<X7.f.8XX.i.F jX[.}.}.x.5Xi.OX{.oXi.rX> 3XE.1XY.&.1X/.U.C 6XOXBX<.mX6XF F.` ' _ &.F v [ i ",
"} Q.x.5Xj.n b.1. .{ K.Q.T.9.aX*.U.7XK.9.!.d.:X[.7Xb.;XtXtXb.;X#X[.x.J O.;X{.$ K.>XdXqX!.%.8Xl.u 5X4XmX4Xo C F s , 5 G.F.(.dX} r.",
"P.v X.N  .0X$   o mX/ 8.HXo X + M.;XdX8.Q.sXj.xXS b.1 k x.o.}.iXvXv.yX7X5XjXj : # [.@.4XoX,.mXH u h.wX$ } n L.0X!.$ ,X/.dXF.N ..",
"> } Q.( ) Q R.sX .wXS.^ %.!.4 O.m A b.e w.n.x.:X>XdXhXtX{ #X[.yX..#X{.[.'.;Xl -XT.tXrX0Xx.=.; q { /.~ %.W qX$.1XSX> @., Y.L.z #X",
"+ %.*.A.Q b R h.Y.%.D.F.$.E.m.tXb.9X7X+Xm aXb 7.E 5XO.vX0 b.e...vXOXr.B.F 4 D /.) qXiX-XtX=X5X#. .=.=.G %.BXdX&.vXA j.i c }.}.;.",
"L G.5 K.D.%.*.x.  E # 7.7.o.B.;Xc.7Xv.OXl i.X t y W.nX, {.K.;XY.  oXC.& MX5X].qXhXM.NX5 , w 8 8 ; ;.,.1 1.%.L.( } >.A A >.[.t s ",
"7.W.@.=   : o ( 8.+Xv.9._ 0.r.4X+X9Xv.K : 0.wXP.s.7.R ( -XN N.9.> F a.bXiXh.  5.2X1X} L G W.MXA >.f.x.}.qX_.Y./.b.FXF =.i ..s i ",
"M.9.P.3X!.w E 8XVX8.N.R Y.~ @.-X..+XZ.t.  =X{.nX4.M.9.8.0 9 u c % V V t.c.; 6 . # X U J J V.b.N.OX{.[...U.%.wX,X1.$ =.H H s i 6 ",
") 9.3X( =XR *.b v $   :X9.N [.Z + J 2X<X4.K i   i.b.U.V.O B.l.s.X.+ T.Z C./ | CX7X<X6.~.%XgXi.V.vXb.kXH i.=.$ #X@X6X& * X |.DXm ",
"E.( q 5Xc Q.S.$./ -X8XiX9XLXOXlXE.M c.iX-XC.LX .L.s.M.HX% bXX.d.E.J h <XcX$XZ.pXk.k.V V 6.a.i.[.. yXu 2 q ..[.i.G $ ,.@XyXD 4XmX",
"~ &.Q qX+.F )./.T 9 =XVXf.p.zX5X=X= %XZ.iXn.iX>.F.D.M.!.z ^ q +.:Xe.k.CXC.gXZ.q.pXCXa.pX6.t.[.bX&.nX!.' wX%.[.AXU C C H `.>.rX0X",
"J i.I.$.;X,.X ..2 X Q.M.PX9Xm 0 lX1 PXa.<XcX5XFXD !.0.qXR.T 6.5.i + J.T.q.pXk.JXo.a.sXV q.#X9X8.!.~.m 9 C H s 6 <.H ,.|.6X$ [.S.",
"s :X%.x.m.h.} b.C.~ 3XP.N.A xXzXkXc.;X4.LXHXB.7XO hXT.C.T.R.R.8.0 d.LX<XiXk.bX/ pX%XcX .;.U.}.u q tX*XyX[.i. X`.;.rXyX6X#X- H T ",
"A f.0X@.2XsXP.c Q.d.Q.z.z.n.O o.B.h.@ z b.>   B.o.8.fX(. .sX8 !.^.9X5.k.B ^.pXj cXw aXpXf s >.u s >.[. Xi.% + i.l x.i. X<.DX4X`.",
"V.N vXhXK.vXBX5X| +XiXnXf : ` R.) Q Q Q *.&.V.vXhXk.mXFXnXsXT.pXjX| : d.z.6.q.E.z.K 7Xp.b 4 & X $ > |.UX% Z x j y DX..i ..0XtX#X",
":Xg.g.>.x g.i f.| m. .E.-X: A.R.S._ h ( [ &.+.b.m.8.5XY.h.>Xg.vX! (.H.~.P nX5XI.^.LXrXP rXZXxX X#XyXGX'.ZX.XI $XSXz @ G ,.[ KX* ",
"wX>.F +.n v...>.O.J L 5X| n % 8 T.D.Q < FX8 /. .*Xi O.g.3 5X9 l D *.&.} l 9XNX+.^.z @.+XL |.P $X&XzX].uXuXI lXy.#X<.{.6X<.tXmXv ",
"9Xb.@ + .     , > + + 7X@ m u d.&.A &.C =.dX_._.)._.' _.%.Y.L G <.;.<.:.nX7X-XwX8.@ 0XGX  u C # @ $X'.AXuX$XI w.jXjXrXrX}.DXBX[ ",
"..SX$Xo OX+Xe.+XgXMXu.C...v.;X<X< d.5XM IXY.A.G.L._ L.F.G.I.X.P H F   rX$XIX+ j.Q Q @ yXtXDXz ,.a xX|.uXlXk w.lXPXtXrXi.}.tXC +.",
"XXhX=X@ 4X+Xe.#Xy.kXu.+XSXrXc.kXn.j 0 5 K > ] ] Y ` L._ T G.q -.7 l % &XXX7 AX  > MXK.NXX X X., -.J .XUX$XI I M 1 2 [.DXlXv., i ",
"yXSX  # o 2 > 4X:.c.w.@X+XjXp.I rXaXT.^.0.  IX#X$ 0Xx.MXaXMXsXjXqXc.o.&Xy.ZXZXLX9X[./.VXH.CX XhX0XY.FXyX[.X C F # . , 2 ; a ,.G ",
"1.9.7.Y.=X>XtX2 0 6 N m m u.J n.c.2.0.h z.u vXiXo g F KXMXjXHXgX6Xu.J y.XXxXXXPXZ.l T.).BXeX,XU.0X*XeX0XC <.&./._ P.$.wXnX1XH i.",
"r Y.*.~ @ F 2Xl.g.NXz.+XB.. # oXG &XZ ].  LXv.c.kXmXb.DXzXZXJXrXmX XK p.S +Xj c.u.;.Z   + ! h.vX%.DX,XqX6X,.>.L.qX$.S.P.}.IX[.DX",
"( r ( %.7 -X8. .BX=XmXbXv.M.l.f ! >XT.D p.W.N.3X$.E vXJXAXvX| ~.LX; 9XCXjXl.3X| kXm XXq z.q.0 gXzX#X,.U Z #Xb.-.zX& 9 }.o 0X*X<.",
"} %.Y.U.V.L X > > I.g.qXl.wXK.!.sXW Y.W.7X8.d.XX8X$.k.m.MX+.-X2XiXZ *XQ.3X9X/.rXkXoXK lXCXR.s #X6XSX Xa `.&X[.U [.-.6XNXs Y.KXrX",
"1.P.*. .@.^.%.DX[.<.4 ,XN l.j.%.9.S.) ,Xc.x.#.B.4XS.5Xc.aXKX9.9.xXC NXK.~.mXbX;X;.o.B 9X> J.H p.mXy.G ].U &X|.#X#XDXN.rX- *.6XyX",
"#.N.}.1.9 9.t ;. X#XC J Y.* {.sXg 8.>.% s.B.h.4.b.4X..y o u tX7., & -X* !.T.> +.S x XXLX5.E.6XOX#XtX:.7 U U oXGX,.s.1.0X# rX[.JX",
"+ b $.Q.E.sXeX7.~ z.x.7X> rX[.p.C #XIXcX@.%X@.s.N.N...9X .%.#.0.! ! N 6 =XHX<Xi 4.jXZ.MX~.2. XPX7XxXi.G I &X-.x.G c ;.L wX}.rXKX",
"o.e.d.C.k.z.8.;X3XHXK 5XZ xXxX7X<.A [ ] dXY.hXfXqXL X Q.!.7.d.8.Y.$.t zX8.+X6 #   . + L NXQ.r.i.t L OXyXL i.6X X;.9 A H /.n X t ",
"| 0 { O.e.o.p.jXn.| ..x D rXxXpX> > 0X).G.~.rXK.nXg B.9.fXQ.>X8.#.ZXMX6XKXk.S VX9Xl.{.7XiXj t x.}.z [.6X7X;.i.}.,X2 =X-.>.#Xs kX",
"v.7Xk.t.+XC.4.C.4.iX5 f R.9.k.vXi , /.S.)._ -XLXj.3X8 N @.T.^.qX#.tX9 P 5X$X{ $.GXC.HXX XXmXmXKX5  .=XC <.x.V.KXA E N b.v...n {.",
"O.| n.v.B | 4.k.iX<XMXcX$Xk k j P . PX[.qXHXn.0.xXFX8.-.v.O . / g   %.1X8.$. .  dXT.NX&.5XaX4.NXBXtXmX+.9 [ DX- I.{ = *Xk.mX  kX",
"u ,.$.8.8 D.%.b % ; @X> % -.rX@XP #X@XI  XG $.U.%.CXHXNXE , MXX.:X,XQ.BX,XVXfX  0 Q.w.wXU.1X0.=XvXKXD.] . SX,XA G c | c tX,XNX} ",
"P @ w K.fXfX) A.A.(.R.0.aX`.&X'.y.JX#X`.:.6 j.~ $.$.9. .H.@ lXQ.{ *X-XrXB gXq.} e 4...UXX = b c 2 + X UX9 L >.0 NX~ r  . XnXN.dX",
"tX  H.6.F.7.nXH.).H.H.eX(.,.`.XX@X#XlX@Xm j   O  Xs n !.W.C   bXF +Xk.2Xj hXY.NX~.aXqXY.} BXl.aXHXE Y.0.+.L <.n { ~ W R F !.:XU.",
"L.B F ,.O . b.0 T. .o.O > 7 ;.y.p a -.o.:.# . + #  .9XN.P -.gXG F X nXBXjXE.j.; ) H.' A DX{.l.=X4.8XMX{ = N KX9 ..H 1 5 !.!.%.{.",
"o D [.0Xb.#XX z } j.$.v.MXk...w.1 gXlXXXuXp..XZXHXE &.&.C i.Z ;.S o p j 3 @.,   0     IXy z. .K.1X~ >X!   ` nX,XE Q.wXBX5XyXx.SX",
"HXz.N.N.2X7X-XJ W.0Xz.qXh.&XJXU @ '.xX$Xw.7XlXXXUX# f. X1X4.~.l D 6 |.yX. L m.9X@.w X.HXMXp.=XSXrX<XpX^.:XaX*.9.%.HX9XwXrXl.l.0X",
"=XNXsXb PXCXKXL   { bX>.S AX@XxX@ #X'.$X@XZ.gXXX&X&X;Xi.4.8XiX;.G -.I ,.  #XW.E.9Xz.BXKXHXj.E.(.PXvXcX4.5XvXu l + , o   X   X H ",
"@.vX=X-XC.8Xw 3Xw } W m $.F :.  O #XgXZX$Xw.w.%X4   1 MXz.f J.y L L `.I G -.B K <Xz.+.NXKXl.8 O.CX<Xz.iX<X<X- ! :X&.mXr.8.Q S. .",
"= 1X8.HX>X2Xf n &.V.~ <X9.[.HXX % ..oXjXXXXXP $X5 X.>.U.f.E 9X$XF =.k 7 LXPX> k : , w.iXHX:X5 -.C.mXz.m.fXpXJ -XwXc x.FXE ! 6.b ",
"K W.{ FX8.k.R F w U.v 0 #.[.l.^.9.J.Q.R ^.O k P . x X.K n 8.N.x H G a.I `.'.gXG S zX>.oXL 4Xd.*.a.iX3XC.bXm.+XI.KXyXW P.IXaXG.Q ",
"O.5X>.}.6 l tX..-X*X6 J 9XI.! l.R.E.!.j LX .<XC.VX;X&Xk C o.uX].lXUXD w.xXI [.rXo.@Xw.jXL !.~ A =.qXHXb.l X s.X C ,X> HXA 4 LX> ",
":X5Xx.p K g.W. X:X@.=X2X^.X . d.r.8.0.> nX4.8Xw.sX~.@ XX. lXlXgXJX&Xp.uX,.$XUXi.I I L u.t | h.BXyXA.gX!.S._.} M.C ] A.j.L.FXSX=X",
"wXOX{.S h.~ N { &.{ n k.~.D.l.F.. l H n KXX.nX9X;X{.= <XO @X4 lX%XI I S @Xw.@XZXXX#Xi.x.[.h.h.J E $.n >XY.,X&.&.# *XwX$.Q.>.BXY.",
"m M.V.  x.{ #.v :X$.  KX  u   3 - K.| T.2.VXQ.g dXX.MXl o.}.4.aXsX% 4 y.lXXX#Xy.XX$Xo.D % 6 ,.Z     H f.`.> tX8 e *.I.8X[.#.IXHX",
"=X8.I.tX>.Y.U.V.R x.L J h.M.m <X@Xb l.K.!.vX8.).@Xo MX@Xn.%X6.! 5.9X+X7XO .   u &X6 i.=.a U x $X7Xu M %Xi.[./.x.qXd.wXeX%.C Q.aX",
"g.CXHXN.+.{ >.:.#.V.s b.C.k.a.;Xk k.8.8Xe.w ! V > -.'.I $XmXZ.| 8.^.M 7X%XP I |.P y.].i.M.HXM XXc.XX9XrX2XF   = 6 u , 0 d u 1XqX",
"n q N O.A i ( q x 7 C.B.t.+.r.X.z z.kXFX;X^.C.z.A 7 kXD 7XX.X.<Xa.%XXXn.<X@X@XM k '.[.P x.K.o.n.M [.w.V d.>XiXf.&.q W.SXx.o ).w ",
"! E } ....[.,X9 } ~ ..=XA OX& 1 > C.m.2X1X3X<.u.b.M.<X%XcX2Xt.<X^.P o.$X&Xj #X1 P . 7XI u $ S m w.o.p.$X<X=X>X .Q.9XNXOX,.+ iXvX",
"b ! N n { [.q r ! $.l.Q.L S 9X .,XE =X{ c.~ / 8. .$.N 8. .w.p.o.$Xp.o.c.a.oX6X@X2XqXP.| <XP.%Xp.c.gXJ n.9 C.-X .A f.mXb wX{ K F ",
"K X   j i <.n T.R 8.X 7 +.o.u.u.F m t.S l.C.h.2Xc E.R M { a.V Z.9XXXc.MXn v.e.XX5.| $.2Xm.jX7Xt.o.XXZ.p.zX8.b.C > = # - i s.N R ",
"z.e.L  .0.z.g 8.  { c N 4.S u $XXXp.$X7Xt.kXa.b a.| +X%XJ 8.8.4.n.XX$Xl o.[.n.gX7 %   4 > i X X . X p o 9 l 4Xn V.{.}.[ /.*... X",
" .>.u ! L.8.@.d.f.j.wX..j o.a.p.u.c.| o.V t.8.<Xo.8.h.k.N +X4.i 4.I r.9 & K 4.3Xn.cXa.'.}.w.m OX;X=X>.&.S.e F =X#.*X..W Y.G.E *X",
"X : u d. .{ 5.6.  x.>.X.5 > X X <.+ +   :.E.{ l.<Xl.L ^ ;XJ O.C.t.@ $XPXL w.+Xz.4.a.7Xp.j ..w. .&.f.E >.@.>XO.!.,X$.V.Y.W P./.  ",
"9.$.! R N ^ q f 7.( 0.~ S.T.7.r m ~ / ! 1 j k.b V  .| | 5.f.r.+XV X +.{ <Xa.4.k.4.8.C.k.O ,.G p :.V.}.vXd BX#.e i e } } U.*./.mX",
"d.| x } M | 4.) _ S.R $.) (.7.D.f q  .D.Q > P KXm N hX3 c B F ! v 3   '.5 0 V V 4.<Xt.cXiXMXbXV 8.i h.{  .:.b c +.@.e e c } +.; ",
"8.w O.f j M m 7.) ) 9.2.~ H.6.H.g 7.T H.7.s F { 9.N.:.; %XJ t.+X .O.+Xu '.a.a.0.q n.4.vX0.aXbX3X .{ j.NXK.} E j.BXBX..K b.>.q [.",
"= -X; :.q h o   5.T.2.2.H.8.aX+ fX/ R.z.^ j F < K.>X5 l.i.D i.+Xv.f.y ~.HXB.iX> D DX# y + :.6.k.9.# U.e ~.>X-Xz.~ @.+.k.b.r.vX1.",
"^ VXh a sXl t m { t bXz.Z D.bX-XO aXM N sXB.X { {.# S u.-.x.8.m OXk.+ o.^.8.9X! v.f.Q.E.W.3XT.4.8.M x X.z.eXE.l.^.1XJ C.7X+XN.n "
};
