/* XPM */
static char *_4361_cc676e4e37beb3c803876317bdf922329e5feeacde3fad7d3403e840b9ff01db[] = {
/* columns rows colors chars-per-pixel */
"64 64 253 2 ",
"   c #080000",
".  c #100300",
"X  c #180300",
"o  c #110801",
"O  c #180900",
"+  c #120A08",
"@  c #190A09",
"#  c #140408",
"$  c #181100",
"%  c #1C110B",
"&  c #1B1210",
"*  c #210300",
"=  c #210A00",
"-  c #290B00",
";  c #220C09",
":  c #290C08",
">  c #211100",
",  c #291200",
"<  c #291900",
"1  c #22130B",
"2  c #291309",
"3  c #25190E",
"4  c #291909",
"5  c #311300",
"6  c #311900",
"7  c #391C00",
"8  c #311308",
"9  c #311B08",
"0  c #391C08",
"q  c #391400",
"w  c #231512",
"e  c #2B1613",
"r  c #261913",
"t  c #2C1C13",
"y  c #2B1C1A",
"u  c #251A1A",
"i  c #321C13",
"p  c #321D1B",
"a  c #3D1E19",
"s  c #392100",
"d  c #322109",
"f  c #392108",
"g  c #392808",
"h  c #312400",
"j  c #2D2114",
"k  c #2D211B",
"l  c #2E281B",
"z  c #332314",
"x  c #3B2514",
"c  c #3C2A14",
"v  c #34241A",
"b  c #3B251B",
"n  c #362A1C",
"m  c #3D2B1B",
"M  c #362A15",
"N  c #3F321B",
"B  c #2C210E",
"V  c #342522",
"C  c #392521",
"Z  c #352A22",
"A  c #3C2D22",
"S  c #3C2E2B",
"D  c #372A2E",
"F  c #3F3224",
"G  c #3E322B",
"H  c #2E2621",
"J  c #421C00",
"K  c #422308",
"L  c #422A08",
"P  c #4A2B08",
"I  c #452501",
"U  c #432B12",
"Y  c #442C1B",
"T  c #4C2E1B",
"R  c #442617",
"E  c #433113",
"W  c #44321C",
"Q  c #4C341B",
"!  c #4F3A1E",
"~  c #4A3213",
"^  c #533A1B",
"/  c #583817",
"(  c #503108",
")  c #442D23",
"_  c #422D2A",
"`  c #472B24",
"'  c #453323",
"]  c #4C3523",
"[  c #4C3A23",
"{  c #43342B",
"}  c #4B352B",
"|  c #4C3B2B",
" . c #463A29",
".. c #533524",
"X. c #533C24",
"o. c #5A3D24",
"O. c #51352C",
"+. c #533D2B",
"@. c #593E2B",
"#. c #583724",
"$. c #4D3C33",
"%. c #473833",
"&. c #533D33",
"*. c #5A3F31",
"=. c #533B38",
"-. c #623F2C",
";. c #603B13",
":. c #5C4219",
">. c #61421C",
",. c #5B4324",
"<. c #53432B",
"1. c #5A442C",
"2. c #594729",
"3. c #4C4239",
"4. c #534332",
"5. c #5A4533",
"6. c #5B4A34",
"7. c #53443A",
"8. c #5B4A3A",
"9. c #58473B",
"0. c #4F422C",
"q. c #624425",
"w. c #62452B",
"e. c #634B2C",
"r. c #6A4C2D",
"t. c #694A23",
"y. c #6C522C",
"u. c #74552C",
"i. c #624634",
"p. c #634C34",
"a. c #6A4D33",
"s. c #624D3B",
"d. c #6A4F3B",
"f. c #62463B",
"g. c #6B5334",
"h. c #64523A",
"j. c #6B543B",
"k. c #6A583A",
"l. c #735435",
"z. c #755A34",
"x. c #7B5A34",
"c. c #72553D",
"v. c #735B3C",
"b. c #7A5D3C",
"n. c #7A563B",
"m. c #704E33",
"M. c #7C633A",
"N. c #5B4B43",
"B. c #564844",
"V. c #5D5147",
"C. c #634E45",
"Z. c #694E44",
"A. c #635344",
"S. c #6B5543",
"D. c #6B5A43",
"F. c #6A544B",
"G. c #6B5A4B",
"H. c #64564A",
"J. c #735742",
"K. c #735C44",
"L. c #7A5E46",
"P. c #735C4C",
"I. c #7A5D4B",
"U. c #76554D",
"Y. c #6B5B52",
"T. c #755B53",
"R. c #746145",
"E. c #7C6344",
"W. c #73624B",
"Q. c #7B634D",
"!. c #7D6A4C",
"~. c #7D6944",
"^. c #736252",
"/. c #7B6452",
"(. c #7B6A52",
"). c #73645A",
"_. c #7C6B59",
"`. c #766759",
"'. c #6D6054",
"]. c #7B6B63",
"[. c #7B6564",
"{. c #7D7165",
"}. c #815F3C",
"|. c #87663D",
" X c #89703F",
".X c #835D42",
"XX c #836544",
"oX c #846A44",
"OX c #8B6B45",
"+X c #846B4C",
"@X c #8A6D4D",
"#X c #85654C",
"$X c #936E4C",
"%X c #8C724C",
"&X c #8C7244",
"*X c #96774C",
"=X c #856C52",
"-X c #8B6D52",
";X c #856A58",
":X c #8C7353",
">X c #8C735A",
",X c #8A7658",
"<X c #957B53",
"1X c #957A5A",
"2X c #9C7D59",
"3X c #967656",
"4X c #856C63",
"5X c #8C7363",
"6X c #8C7A6B",
"7X c #877468",
"8X c #977A64",
"9X c #8A7A75",
"0X c #947D75",
"qX c #A27F65",
"wX c #9D825A",
"eX c #998256",
"rX c #A4845A",
"tX c #9C8363",
"yX c #9C836B",
"uX c #968569",
"iX c #998676",
"pX c #948A77",
"aX c #A48563",
"sX c #AC8D63",
"dX c #A58C6B",
"fX c #AB8C6A",
"gX c #A58866",
"hX c #AC936B",
"jX c #A58D73",
"kX c #AB8C76",
"lX c #AD9473",
"zX c #A79377",
"xX c #B59A78",
"cX c #B3936C",
"vX c #BCA379",
"bX c #C6A87A",
"nX c #9C8A84",
"mX c #A99785",
"MX c #B79C87",
"NX c #AF9890",
"BX c #BCA587",
"VX c #B7A494",
"CX c #ADA294",
"ZX c #C8AA86",
"AX c #CDB48B",
"SX c #D5B78B",
"DX c #CBB397",
"FX c #D8BA98",
"GX c #C6AE94",
"HX c #CBB8A7",
"JX c #CEB4A5",
"KX c #E7CDB5",
"LX c #E7D7C6",
/* pixels */
". ' { % o n m Z H { j 0.  1 9 Y 6.  7.W 8.+XO T.s.Q +XD . 2.6.8XA.S >X! Q.X % a. .a.O 4.p.4 v y S A A s.$.. <.k w   + B B F %.  ",
"l 3 3 O 3 O v o { o 3 < F | c Y $.A = A.Q.] K.8 +X<.X O Y _.+X:XI.5X7 Q.X ).. 9X1.[ s.c 4 (.7XO ].  ' 0.$ k F { B.r   Z j 1 $ c ",
"%.$ k 7.k ' u t V. .o > t <.<.uXX m pXQ.n , X.) =XlX} } =.J.Q s R X 1X3X] VXVX) , e.e   jXY p.' O   G.W j k 5.v B N.n % 0.3 @ l ",
"1 <.l v k z @ . Q 9X4.p.d ' O ,XO _ b.5.XXy.:X#XA.ZXa X }.- vXdX-X@.8X~.} &.j.= E.9 8XK.4 ,XA i n y K.'   [ $ 8.  j . + d.  A j ",
" .t o Z B v g   7.4 4.< 4.V.U $.M.1 _ <.c.! !.: :XJ.*X, 1.7 r.e.:Xp L - OX} p...o.@.v v X., o.7.@ Q.| ' t $.' v n + o ' 3 n r 1 ",
"O ' u G V 3 O W.v 4 Y h.p Y A g.p.,.I.dXi.>.VX5Xv tXL.I h.FXdXq.* } X L 5 <X:Xv.>X: * O m 0X9 =XW 1.D.  F.  ' 1 s.k > F z o w w ",
"1 + z F A 3.O ) } A.= y v =X] O U #XY 1.>XX - g., X E.w.` g.ZXK.- p.3X5 7 o.X a.i.dX1.>X* ;X7 Y 8.6 O F.m v } O j y Z j   A . w ",
"$ j y M v n 6.[ O 4 +.{ pXg.4 S.s g.Q O.BX1., +.GXoXu.R / cXe.,.1XJX- fX:XI.}.-XBX5.5.6X' s Q.m U f g O z &.O h.O W O . r %.A r ",
"{ 8.& n n z { Y 0.. m +XX | z r.>Xx.5X} 6 ,.: * n.<XL.$X: 1XsXJ e X $Xr.E.OXE.o.OXm.s.T.U xX+X] a.h W.Y X w = t G.O i j d V H   ",
"3 n } 1 c 0.j.+ nXV j.T o.A.l.%XtX6XB.} jX#.w.AXP *X2Xi.*.#Xl.SXgXbX|.;.b.DXU.6 L.3X#X8XoXi.[ = /.r.Q ,XQ.h.9 F.H.].+ c k $ O v ",
"v  .' ' , F.v 7Xs.} <.a.6 c.,.,.w : |.8 1.q.7 kXq.7 8.. qXMX7 q -.I x.cXi.d.o.* fX5 ] XX..8X5XG._.O L x Y O , c V.{ V.. 4 3 O % ",
"% > b 8.t k.N.2 1 ) +.,.* p.* <XX 6.@ O.2Xa.c.a xX&X: KXiX3XP AX2X* o.}.i.HXX 5X2Xx...i bXgX..7X].v >Xi.] 7.,X(.$.4 N.7.D.j % Z ",
"3 [ { 9Xt h.< n a.@ ^ wX@.HX< rXK } OXR t.bX;., O.vXT * $XR xX*Xq.( i.m.* 8Xt.- xXOX-.,.r.sXi |.) O -X' 9 X.k.X.w 1.% m 2.r Y.@ ",
"<.| v Y.v Y j.U.Y ,.oXy.  G.gX*.OXX h.*XI *X@ X >.qXAX* 0 AXx.cX=.X ( gXSXVX0XcXu.%Xp . 1X-XbX= O 2X>X1XX V ,.<.Q.)   K.4 M S   ",
"8.O e 1.%.9 N ,.s.~.S.f.` tX= t.q r.#.p.8XJ JX1X..bXOX3XBXb.K = * Q.- rX$XK 5 / ^ N.-.=X. R.7 #.a.g.c.2 p.O = h.s.O c W m w 3 Y.",
"s.+ Y.Y.s.  X.s.} Y xXa - (.5 %.L.-X*.fX6 0Xt.= a.* SXL.X  X=XtXi.s.xX3X*XJ.- AX- 3XLX7X* #XwX* d.BXj.U VX| F.U ^   8.4   M @ ' ",
"Y t `.j.W., R.p.D.Y <Xt = <X0 :X<X@X@XP.SX) X q.KXE.u.#X@X8XZX* #X$X- SXm.J.3XQ.vX: oXo.- AXMXb.-XlXoX= 7 X 2 vX% | | <.{ 4Xc   ",
"4 p.# { . Q.6 h.) 5.[ 2Xe &.../ wXq.O.+X[ rX* 8 #XrXxXO.#XaXZXsX8 f./ o.@XgXI.m.0 <X: 8 <X>X6 A.j.] L.L X X rX9 h.t } 4.E > O # ",
"' 4 < 8.Q j.+XA ;XX +Xa.kXE.OXxXxX;X8Xe 7 ^ 2XxX( cX-.= ` * w.wXu.P qX3X8X* * #Xl.m.2Xe.XXr.=.- ; @X;XxXzXv.) J.. F.O > s.h.> ^.",
"% A m = 2 8.[.Q jXQ { ZXe.5X@XMX@ Q.t.6 x j.%X8Xr.q 8X5X2XOX- I * f.-.dXr.- BX* sXeXo.* L.] ZXyX* A.>Xq.W...[ O K.;X8.G n h % ' ",
"> 6.> D.  d | zXe.+.=X0 q.T ;XDX+.MXb.ZXgXI q &X>XZX..@.d.8 cX*XT .XmX~.i.6 0Xr.AXL./ t.:XfX2 9 5X` 1X@X~ , #X6 ).2 4 7.!.B.f n ",
"z <.A . 8.9 >XX 8.O.#XlXn.6X= 7 @X2 w.m.sXwX&XX f.7 OXX * / K @X$Xc.5.sX7 ) Z.P OX#Xf.d.f I .X} X ..~ -.% ^ ,.,.+.X . 5.m G {.W ",
"S.5.. .   (.1.1XiXg.M.<XNXCXX o.-XtXX ( 2XrX5X*.=.>Xr.a.FXFXr.2X: : L E.rXa.R qX#XE.- ` s m.l.c.0 3X+X- = _ :X^ XX| Q J.2 O . @ ",
"W.{ ; Y = S.K.Q Y X.v.O +.a.P.,Xo.s <XK 0 . 8X>X* oX5 5X#X- i.;XjX6 kXvX7 |.#X#.1XkX!.@.8 kX6 9 J.,.| S.I.O { 0 +.5.x 2.0.; v _ ",
"K.{ , v W e s ` 1.S.gXG.AXHXX.v xXT 0 fXrXX X h.w.U rXL.-.l.2XT.yX1 r.I 2X#.R AXg.X.6.2 g E.o.- Z.BX#.8XCX;XO tX6 = &.iXt *.G.O ",
"=XG.O 5.X E.^ 9 ].O.~.h.F v.x %XrX7 JX0 dXE.; *X= |.sX7 *.l.eX- 1X*XR SXwXt.( :XhX- rXu.2 ~.lXL.7 |.2X} b.X 5.~.] 2 i ! (.. <.  ",
"> p.O.{.! =Xv.oX; +XyXoXX p.6 / %X*.4XrXg.sX* d.sX$XeXX ;Xl./ vX4X- 2X5 xX@ ` @X>XoX* p.&Xz.%X. y v.g.xX4XO y.!.h.].. Q W 6.7X. ",
"<.6.[ ' p.= 6 [.g.O.g.T L >X,.#X7 7X..5.M.7 z.xXb.>X-XX #XO.r.|.b.K 5 b.X ; ;XX t.M.r.-X, q.&.K.. ^ o.o., <.* p.C (.G z , ! O ' ",
"o [ 1.j.4.zX# :X4.dX@ o.Q.` T ZXX - O.p.* 5 -XX %X7 O.>X6.5./ @X..X 8XE.aXm.s.* ..oX* X ZXQ.aXDX..A.] P X A.=X .Y O Y } U ' i ) ",
"M j.} [ n +Xx ' a.Z.e.3X,.>XO <XX X x.DX2Xt.x.L./.FXY X 5 - AXr.b.6 ,.<X* ;X@.R sX6 S.=Xm sX: ,.P.X dXP.p.K.6 ~.7X6   @ tX   .d ",
"p.= A.{ ' , j.@ O | 6 o.Z.mXg.0 dX* ; a./ vXJ.- :X#.fX=.X K l.-X=XK.t.a.K _ ; o.-Xj.kX] f X.#.O : l.1XyXO O [ T c.X p R.4.Y.].A ",
"5.K.G Y.; ' Y v.o.^ D.L.T./.X @XT cXg.7 xXK - jX4 6 ,.P P #X#X8X&.= J.@.ZXw.q...a.lX* v Q.+XxXE.s w.=Xt X @ Q 2.} j.>Xn j.. $.. ",
"> S ^.p.<.[.5.[ s.d.Q.7.Z.+X;XX p.w.' a.: 7.U.xX- &.r.X.2 e.a.s.* O.w.aX~ ..X r.aXI.%XjX8 >X1.s.Y f = 9 =X) 7.p.[ 8.1.[   X c c ",
"K.  m p.X > [ c 9 B.-X| MX1.2 %Xb.R 6 8 1Xj.VXX >Xv.n.6 z.tXU jX<.DX= :Xb.R / 3XBX_., DXmX1.yXd.W E.g } uXO A g } 1.O K.5.iXG.^.",
", <.  X.Z 2.g h.1 v j.T O 8.n aX<XM.6XP.7 7 X - Y l.K e.6X#XtXv.= X o.3X1X:.) X.lX..* * J.gXW.Y L < w.K., . x v.) iXY <.K.F X . ",
"A.W Y } h.e.j.X   2 , X.6 A.l.q.}.).  5.@.< ~ MXq.}.aXX %.^ BXxXo.=XhXg.q.; X >.dXX <.9 XXJ.] ) v +X^ E.0X8 !.<.Q A B.6.[ h.= z ",
"4.< W d Q W.4.@ E.} Y oXQ = E.^ @ 4XL.- ^ P 6 Z.q.s `.X #X* v.T -X- E.= O.7X+X2 8Xp.5 I.6 @.m 8.O.G Q.U p.Y 6 /.p W.O @ A | m 3 ",
"' d @ =XO uX%.< mXD.O s x ! ] z.X mX7X` s xXd.@.8XhX= HXiX+XI r.>Xi L.E.J.6X> Q 7 s = a 1X, ..| 6X4XjXh.] } W.W ' 4.O o R.(.V r ",
"i g O {.' Q.5.  ,.9Xe.:XR = $.:Xa.$.p.p fXe.o., *.1Xs.X :.O.y.<XT L.yXvXX ) t.X 1XX.S.K.X.3X2 >X5.= yX,X_.p.L k.{ X.. b Q.k 2 = ",
"W.G.n `.4.' y.O 9.9 g.1Xm A ^ , XXi mXXXg.^ e H.eXd.y.} _.lX@X%X_ . t.,.1XO } tX+X>X  % v.0 lXX Z.XXk.^ A.. Q.E ,X] . W.$ c 7.  ",
"M = . 5.@ Q 2.1.s.g , ,.C.s.i p.Y ,.Y ,.c.w.=.>X&.E.7 >X, o.f > X G.s.eXJ.jX>X] :.  S.A.  <.X.,.@.v.g.e (.. | s.<.S.c $ <.F 2 N.",
",X@ m   8.@ j.s.. O zX@ h._., # ] ' ; /.S.$.o._.@.v R.5.X 1XuX+.' X =X1.+XK.G.zXD.- > = o.O e.b S.zXD.j.mXC.{ h.K.4 e <.. &.N.A ",
"W r ).X.h.m E v.x r >XX NX6.. ] ,.1.,X_.hXY @ W mXs b...v.2 <X} s.d.[ wX] i., W wX2 j.Q ` gXC.*.j.j.Q.; < a 1 M.A.4.[ 0.= { 0.. ",
"n ' O 8.{ D.! $.V A.L Q : b e.v +X&.6XuX5 +.$.O , 3X4 = D.X.c 6 %.X s.,., ` Y 1.e.j.O X X.5.[ b i K.,.X.O S <.n W.=.t ^.z } { O ",
"x ] N 9 W.[ <.).O O 4., W N ,.,.,.} C.: ) p.f 8Xb.W.Q /.X X (.- #.^ E.- Y T.X > h.@.o.6 ' 9  .; O Y N ' K.W +.;XX # O ' | M F 4.",
"@ 2 4.o | W.o > ! N ].= 6 $.j.8.. T.[ F.7./.>XA.Q ` j.P.,XS.] T K.O.f `.I.O P.; (.J.4.O <.Y 4X] O 4.9 _.' 6.^.%.S.2 ) @ t [ $.&.",
"  B v D.n [ k 6XF O O k.O Q Y !.C mXX A 5X0 R j.= 6 { O 4.O e.^ U 1.- jXX VX%.4 =XX.1., w.J.O iXnX} , s.+.O 6.2   z X Z = F ) O ",
"<.< { y w 4.U H.&.w W.(.P.; O 2., . R n ^ h.g.mXC., d.X O *.^ K.^ , p.dXK.X X ] =X5., | c w.S.O O c P.Z.^.E W ,.) O . j 5.t N.v ",
"k.[       *.<.6.Z S.W j.].  } W.h.O O ,.p.h.Y._ p f Q.> uXS.~ ^ _ X [ [ wXM = R.=Xm i . 7 2.v.4 ] zXm 6.@ X p.E 2.] v 4 Q.1   k ",
"4.Z O O A 4.9 m   [ E . F.s.O A k.z &.[ 2 ) %.j.. 0 0 h.4X1., _ &.> b E.c Y (.Y P.O m !.; 9 h.m S.[ /.X G.  Z 6.t M > 4.A.o { k ",
"] o v 3.i   5.k ' = 2.O X.).- C p.i i . v.. > O Y 5.Q O p U uX4.| 4X, ' c 0.e !.9 G.X O 4 [ [ O w 9 W , O 1 S.6.] X y = j O ).o ",
"] A o s.].+.h 1 O N.E { k <.B.h.k.Y X 9.p.4 9.y.A c.k.6.H.5Xh.X X <.C !.5X,.<.p.R.X D.1.2 p.8.P.' 6.Q.{ ,.. 1 K.9.4 x v W k W + ",
"j < A O 4.D.G.^.G.6.n v.p Y.Y f < i H.p.> v.X {.s.w.(.  B.<.> +X].A h., 6.. @ 5.x 2.4.3 k.Q k.. . 6.c h.$ X h.2 A B.. 8.F G.6.+ ",
"M ' (.+.]  .> _ O X W <.4.[ j.> c @ m   K.j.=X, ! = } z /.9 6.p.U , , 5.z   7.O <.c 9 z | P.w =.o ' 0 4.4 4 ' M r } B.F d A ' v ",
"H.4.A.j O uX+ { 7Xj   W.O O m c . H.zXG.k h.O $.6.] ' 4.> G.G.j.&.j uXX D.' O O z D.{ | (.V ;XA 4.j c 4.. = h.7.A.  j G ' z @ 1 ",
"w 9 } F 3 D.r ^.s.' 2 4.W x O ,Xy ].p._.' :.1.v H.,X  5.5.O =Xc [ +., v.% 8.c C a.O 8.c > S.+ <.B.@ g.v d ' | 6.j c v . P.. Z m ",
"A. .Z 3.$.' 1.@ O { W 4.%.Z [ d p.u Y.' D.K.| b G.> X.    5.c [ * v p.E $ # O Y +.' t ; 8.6.X . k ] N v C.A X ] i y   | ) $.O   ",
" .9.V 9.V 4.F x v <.,X4 v   . 4 z 4 A <.[ Y C @ y > 1.N n 5.Y = :   $.O > < , [ h.0.X Z x O 8.<.> < [ {   $.= M ' v Y M 4.  r B.",
"= . A n O o $.1 t ) S.. ' 4.}   [ c $.(.n + } 9 O h.[ O . 4 8.$.k 4.O D.8.n o j.' O ^.1 $.A., O n ;XG.z m y B.j 4.7.' n y n | r ",
"z . t Z $.  , O G 0.' Z H.A } F [ z v O =   @ iXO | <.8.p.4.5XN.Y.pXO c W p N 2.h.%.G.O . S.[ M > 4.c   D.@ . Y  .w ) $.3.O `.Y.",
"$ F   3   n x B '.v ' 2 . r C 8.,.h.].  Y } . O % [ 9 <.7X' m ' X X 1 s.[ <.1.Y 6.m ' j ) m 4.4 +.[ h.C 4.  m [ 8.`.N W 0.+ z & ",
"$ ' t F m 4.4.. . r v n > 1 <.6.| @ + . D.5. .A.+.h.h.N.  X.^.'  .&.W.<.p.X % <.G.N O } m 8.$ @ O h.n *.O { D.m )   3.m F ' %.r ",
"v 4 M ' N % t   = n n ) [ A.' (.j N.7.A _.h.= m [ W.  6Xv @ 2.M m ] =  .o   x S Q { A X F = @ v A % (.d i b i ' %.      N 3.3 4 ",
"  ] k 8.1 5.. ' A A.1 n r F > W.@ ' '.[ 4., 1 @ O S.8.j { = 4 c Y   = S.n iXO Z W 6.@ w 6.O 1 o A B.A ' 1   c t { F o . [ n z w "
};
