/* XPM */
static char *_161_0dcc20d000ea8b1dfd11dbca60a40bdde807df3610139d15c2fe3715aed6fa0b[] = {
/* columns rows colors chars-per-pixel */
"64 64 188 2 ",
"   c #099A9C",
".  c #0F9FA2",
"X  c #109FA2",
"o  c #0FA0A3",
"O  c #0BACAE",
"+  c #10A0A3",
"@  c #12ABAE",
"#  c #0CAFB2",
"$  c #0CB0B2",
"%  c #11B3B7",
"&  c #12B7BA",
"*  c #12B8BB",
"=  c #2FAAAB",
"-  c #2CB5B7",
";  c #2BB6BA",
":  c #2CB9BD",
">  c #33B6B1",
",  c #34BAB5",
"<  c #35BEBA",
"1  c #3CBDBE",
"2  c #50AAA1",
"3  c #45BEB3",
"4  c #4DBEB6",
"5  c #4CBFB8",
"6  c #65B7AA",
"7  c #65BAAE",
"8  c #6BBDB1",
"9  c #36C1BD",
"0  c #38C3BD",
"q  c #46C1B5",
"w  c #48C4B7",
"e  c #4BC5BB",
"r  c #4AC9BD",
"t  c #53C4BC",
"y  c #6CC3B6",
"u  c #2EBDC0",
"i  c #31BDC1",
"p  c #3CBFC0",
"a  c #2FC2C7",
"s  c #36C4C0",
"d  c #3DC7C1",
"f  c #3DC9C3",
"g  c #35C5C9",
"h  c #36CACE",
"j  c #3CCCCD",
"k  c #3ED1CD",
"l  c #37CED3",
"z  c #38CED1",
"x  c #37D0D4",
"c  c #38D2D6",
"v  c #3ED9D4",
"b  c #38D4D9",
"n  c #3BD9DC",
"m  c #41C1C1",
"M  c #44CFC7",
"N  c #4CCDC5",
"B  c #42CFC9",
"V  c #43D4CD",
"C  c #53D5C6",
"Z  c #59D6C7",
"A  c #55D7C9",
"S  c #59D5CE",
"D  c #56DBCC",
"F  c #5ADDCD",
"G  c #42D6D1",
"H  c #44DBD4",
"J  c #49DDD5",
"K  c #45DFD8",
"L  c #56DCD6",
"P  c #5CDCD2",
"I  c #6CCFC2",
"U  c #67D2C4",
"Y  c #6CD1C4",
"T  c #6ED5C8",
"R  c #61DDCC",
"E  c #70D5C9",
"W  c #77DBCC",
"Q  c #73DFD5",
"!  c #79DED1",
"~  c #55E0CF",
"^  c #5BE0CF",
"/  c #4AE0D7",
"(  c #46E1DA",
")  c #4AE5DD",
"_  c #56E1D3",
"`  c #5DE4D3",
"'  c #5FE8D7",
"]  c #50E6DE",
"[  c #5AE7D8",
"{  c #5EEAD9",
"}  c #60E0CF",
"|  c #61E5D5",
" . c #6CE7D7",
".. c #60E8D7",
"X. c #65E6DB",
"o. c #6BE5DA",
"O. c #63EBDC",
"+. c #6BEADD",
"@. c #7EE2D4",
"#. c #71E5D9",
"$. c #71EADE",
"%. c #63F0DF",
"&. c #4BE7E0",
"*. c #4DE8E0",
"=. c #5FE7E0",
"-. c #54EAE2",
";. c #67ECE1",
":. c #69EDE2",
">. c #72EDE1",
",. c #78EFE5",
"<. c #67F1E6",
"1. c #6AF1E5",
"2. c #66F3E8",
"3. c #6CF3E8",
"4. c #72F2E5",
"5. c #71F5EA",
"6. c #8BBBB6",
"7. c #8FC0BA",
"8. c #93C3BE",
"9. c #84CAC4",
"0. c #83D4C7",
"q. c #83DCCC",
"w. c #8DDECE",
"e. c #92DECF",
"r. c #80DDD0",
"t. c #A4DFD7",
"y. c #B6DED5",
"u. c #8CE1CF",
"i. c #83E3D3",
"p. c #8BE5D4",
"a. c #8DE8D7",
"s. c #82E7D9",
"d. c #84E9DA",
"f. c #8EEBD9",
"g. c #95E5D5",
"h. c #99E5D6",
"j. c #92E8D6",
"k. c #99E5DD",
"l. c #93EDDB",
"z. c #9BEADA",
"x. c #8EF1DF",
"c. c #95F1DE",
"v. c #9BF1DF",
"b. c #ABE5DD",
"n. c #A4EFDF",
"m. c #ABE8DF",
"M. c #BEE5DC",
"N. c #8EF4E2",
"B. c #94F4E1",
"V. c #99F5E2",
"C. c #9CF9E6",
"Z. c #AFEAE2",
"A. c #B1EBE3",
"S. c #A1FCE9",
"D. c #BAF5EB",
"F. c #BDF4EB",
"G. c #B9FAF0",
"H. c #C1DCDB",
"J. c #C1E7DF",
"K. c #C4E8DF",
"L. c #C6E6E4",
"P. c #C9E4E3",
"I. c #C5ECE3",
"U. c #C8EFE6",
"Y. c #CDEBE9",
"T. c #DFE1E0",
"R. c #D0EBE9",
"E. c #C6F0E7",
"W. c #C9F0E7",
"Q. c #C4F4EB",
"!. c #CCF3EB",
"~. c #C6F9EE",
"^. c #CBF8EF",
"/. c #D0F6ED",
"(. c #D2F8EF",
"). c #CFFDF3",
"_. c #D3FAF1",
"`. c #DAFFF6",
"'. c #E5E4E4",
"]. c #E8E7E7",
"[. c #E3EBE9",
"{. c #ECECEB",
"}. c #F0EFEF",
"|. c #EEF6F4",
" X c #F4F2F3",
".X c #F9F6F6",
"XX c #F6FBFA",
"oX c #FDFAFA",
/* pixels */
"( ( K ( ( ( ( K ( / ( K ( / ( K b b b b b b b b K ( ( K ( K ( ( K ( ( / b b b b b b b b b b b b b b b b ( ( H ( ( / ( v * * * * ",
"( K ( / ( ( K ( K ( ( ( K ( K ( b b b b b b b b K K K ( ( ( K ( ( K ( ( b b x b b b b b b b b b b x b b ( ( ( ( ( ( ( v * * * * ",
"H ( K ( ( H H H H H H H H H H H c l l x c l l l H / H H H H H H H H H H x x x x l l c c l l l x c c x c H H H H H H H v * * * * ",
"( ( ( H V f d d d d d d d d d d i i i i i i i i s m d d d d d d m d d d i i i u u s : : u i i i i i i i d d d d d d f j * * * * ",
"( ( ( V k.A.A.A.Y.R.Y.R.R.R.Y.P.p.s.s.d.d.d.d.d.Z.Z.A.A.Z.Z.Z.Z.Z.Z.Z.m.s.s.s.d.s.s.s.@.` _ _ _ L _ _ ..Z.A.A.Z.m.m.b.9.@ * * * ",
"( ( H d A.`.`._.XXoXoXoXoXoXoX Xn.V.C.C.C.C.C.S.)._._._._./._./.(.(.(.W.v.V.V.V.C.V.C.c...{ %...O.O.%.4._.(.(.^._./.!.8.+ % * * ",
"/ ( H d m._._.^.|..X X X X X X{.z.c.V.V.V.C.V.C.).^.^.!.!.!.!.!.!.W.W.I.z.l.c.c.c.l.c.a.` ` { ' { { { $.~.!.!.!./.Y.I.8.. % & * ",
"( K H d m._./.!.[.'.'.T.'.'.'.T.k.l.B.B.C.C.V.C.Q.U.I.I.I.I.I.K.K.M.M.y.w.p.u.p.u.w.u.q.F ^ D ` ` ` `  .I.I.I.I.W.W.K.7.+ % & & ",
"( K K d L.XX X].0.U U I I U I Y  .$.>.4.G.^.~.F.z.g.k.g.g.g.g.e.U U U y r N C N m 0 m m g h j k H H H L #.Q Q s.E.U.K.7.o % & & ",
"K K H d P.oX X].T D ^ ^ ^ ` ` ` O.1.1.3.Q./.!.I.z.l.j.l.l.l.j.p.F ^ _ _ G H v v l l l l x b b b ( K K ( :.;.;.,.E.U.K.7.  & & & ",
"( K H d P..X X'.E _ ` ` ' ' ' ' 1.3.3.3.F.!.W.I.g.c.l.l.l.j.l.f.^ ^ [ ^ G H H H c b b b b b b n ( ( K &.:.:.;.,.E.U.J.6.+ % & & ",
"( ( H d P..X X].E ` ' ' ' { { O.3.5.3.5.F.U.I.M.j.l.l.l.l.j.j.p.} ` [ ^ H ( ( H b b b b n b n n ) &.&.&.<.:.;.,.I.J.M.6.+ % & & ",
"K ( H d P..X}.'.T ` ' ' %.1.1.1.G.G.~.D.z.g.g.g.j.j.l.f.#.+.#.+.' ^ ` ^ H / ( ( ( ( &.&.n &.&.&.2.2.2.2.:.:.:.:.z.e.e.8 + % & & ",
"( K H d K..X}.].T ` ' ' 1.1.1.3.Q./.!.W.z.l.l.f.l.l.l.f.X.X.O.X.^ ' [ ^ H ( ( ( ( ( ( ( ( ( ( &.3.1.1.:.:.:.:.>.l.l.j.y + % & & ",
"K ( H d K. X}.'.T ` ' { 1.1.1.1.F.!.Y.U.g.c.l.l.j.l.l.a.+.X.;.X.' ^ ' ` H / ( ( ( ( ( ( ( ( &.&.3.3.:.:.:.;.:.:.l.l.j.y + % & & ",
"( ( H d H.{.[.T.T [ ....1.1.3.4.D.I.K.A.g.l.l.l.j.j.a.a.o.X.X...^ ^ ^ ^ H ( ( ( &.&.&.&.&.&.&.&.:.:.:.;.X.O.+.+.c.j.j.y + % & & ",
"b b c i q.h.h.e.o.;.:.1.N.B.B.B.k.l.g.g.l.l.l.f.#.o.o.o.P ` ` D V V H v ( ( ) ) { %.%.%.2.2.2.2.3.:.:.O.` ` `  .j.j.j.y + % & & ",
"b b l i ! v.l.l.>.:.:.1.N.B.c.c.c.l.f.l.l.l.j.f.X.X.X.X.P ` ` ^ H ( ( ( ( ( ( ) { { { ..3.1.1.1.:.:.;.X.^ ` ` | l.l.j.y + % & & ",
"b b c i r.V.v.l.>.:.1.1.B.c.c.c.c.l.l.l.l.l.l.j.o.O.X.X.` ` ` ^ J H ( ( ( ( ) ) %.{ ..%.1.1.1.+.;.;.;.X.` ` ` | f.j.p.y + % & & ",
"b b x < i.V.B.B.>.1.1.3.N.c.c.c.c.c.c.l.l.j.f.p.o.X.X.X.F F F F H ( ( ( &.&.) &.%.%.O.%.3.1.1.:.;.;.;.| F F F R q.q.0.7 + % & & ",
"b b l i @.V.B.B.B.N.B.B.c.c.c.c.l.c.l.l.o.o.o.o.F | ` F V H H H H ( ( ) { { %.%.N.N.N.N.c.N.c.d.P } ` F V V V M p 1 1 =   # % $ ",
"b b c i i.V.V.B.c.B.c.c.c.c.c.c.c.c.l.l.+.;.;.X.` ` ` F J H H K ( ( ( ) { O.{ %.N.C.c.v.c.c.c.a.| P ^ A V V G V h h h -   O # $ ",
"b b l i r.C.V.l.c.c.c.c.c.c.c.l.l.l.l.j.o.;.;.X.` ` ` ` H J ( ( ( ( ) ) ..O...%.c.c.c.c.c.l.j.p.F ^ ` F G H H v l l l :   O # $ ",
"b b l i s.S.C.V.c.c.c.c.l.c.l.l.f.f.j.f.o.;.;.X.| ` ` | J ( ) ( &.) ) *.%.%.%.%.c.c.c.c.p.p.p.i.Z F F C V V V V h l z :   O # $ ",
"K K H d Z.).~.Q.z.c.l.c.c.l.l.l.#.X.o.o.o.;.o.;.;.;.;.;.{ { { { { { { %.x.B.B.B.c.c.l.a.R F R Z M V V k h h l l l l l u   O # # ",
"K K H d b./.!.U.z.c.l.c.c.l.l.l.>.;.;.;.;.;.;.;.;.;.;.;.....{ { { { %...c.c.c.c.c.l.l.p.F ^ ^ D V V H V h l l x l l l :   # # # ",
"K ( H d b./.!.U.z.l.c.l.l.c.l.j.o.;.;.;.;.>.;.;.;.;.;.;...` { ..{ { { %.x.c.c.c.c.l.j.p.R ^ ^ D H H H G l c x x b b x u   O # # ",
"( K H d b.^.!.U.z.l.c.l.f.j.l.f.#.;.;.;.;.;.;.;.;.o.;.o.` { ....{ %.{ %.x.c.x.c.a.a.p.i.F F F D H H H H l x x b b b b u   O # # ",
"K ( K d b./.!.I.z.l.l.l.$.+.+.+.;.;.;.:.:.:.;.;.P | ` ` ....` ..1.1.1.1.+.$.$.O.| R R F V H V H H / H H x b b n ( ( ( s   O # # ",
"K ( H d b./.!.U.l.l.c.l.+.;.;.;.;.:.:.:.:.:.;.;.P | ` [ ' ' { { 1.1.:.1.1.%.<.+.` ` ` ^ G H H K H H K H x b b b ( ( ( 0   O # $ ",
"( ( H d b.!.U.I.k.l.l.l.+.;.:.:.:.:.:.:.:.;.;.;.X.' ' ' ' { ' { <.:.:.1.:.:.+.O.` ` ` ~ H H H ( K K K H b b b n ( ( ( 0   O # $ ",
"K K H d t.I.I.M.g.j.l.f.$.:.:.:.:.:.:.:.>.;.;.;.' ' ' ' O...O.O.1.1.1.:.:.:.:.O.| ' ` ` H / K K ( ( K K b n n n &.&.( s   # # $ ",
"b b x i r.z.g.g.#.+.:.;.:.:.:.:.:.:.:.:.' | ' ' ..' { { 1.1.1.1.1.:.<.:.` ' ` ..' ` ' ~ H ( ( ( ( ( ( ( ( &.&.&.{ { ' r o $ * * ",
"b c c i @.V.B.l.>.;.:.:.:.:.:.3.1.:.:.:...' ' ..' { ..O.:.1.<.3.1.1.:.:...' ' ' ' ' ' ` H ( ( ( ( ( ( ( ( ( ( &.{ { ..r o % * * ",
"b b x i @.V.l.c.>.;.:.1.:.1.:.:.:.:.:.:...' { { ' { { ..<.1.1.:.:.1.:.:...' ' ' ' ' ' ` H ( ( ( ( ( ( ( ( &.( ) %.{ [ r o % * * ",
"b b l i s.V.V.B.>.:.:.1.:.1.:.:.:.:.:.O...' ........{ O.1.:.:.:.:.:.:.:...' ..{ ' ' ' ' ) ) ) ) ) ( ( ) &.*.&.*.{ { ' w o % & & ",
"b x x i @.V.B.l.>.:.:.:.1.:.:.:.` ' ` ........%.3.1.1.1.1.1.:.:...` { ..{ { ..{ ' ..' ' { { { [ ( ( ) &.2.2.3.:...' ` r o % % * ",
"b b l i @.V.V.l.>.;.:.:.:.:.1.:.' ..{ ..........1.1.1.:.:.:.:.:...' ......' ' ..' ' ' ' { { ' ` ( ( ) *.2.3.1.:.' | ^ w o % * * ",
"b b x i i.V.B.l.>.:.:.:.:.:.:.:.| ' ..{ ........:.:.:.:.:.:.+.+.| { ' ` ..' ' ' ' ' ' ' ' ' ..' ( ) ) &.3.1.:.O.` ` ` w o % * & ",
"b b l i ! l.a.j.:.1.:.:.+.;.;.;.....{ ..O.%.%.%.1.4.1.1.+.:.O.O.` ' ' ' ' ' ' ' ' ' ' ' ..{ ....] ] &.*.3.1.O.X.D F A q o % % & ",
"b b l i D | ` | :.:.:.;.| ` ' ` ' ' ..O.x.B.B.B.c.c.c.f.` ` ' ' ` { ..| ' ' ' ' ' ' ' ' ......%.B.B.B.N.:.>.;.| V V V ,   O $ $ ",
"b b l i L ` ` ` O.:.:.:.` ' ` { ' ' ..%.x.c.c.c.c.l.c.a.} ` ^ ' ' ` ' ' ` ' ' ' ` ' ` ' ......%.B.V.B.N.;.;.;.[ V H V <   O $ $ ",
"b b l i D ....' :.:.:.%...` { ..' ' { ..x.c.c.c.l.l.j.a.} ` ^ } ` ` ` ` ` ' ` ' ` ` ' ` ......%.B.B.k.f.o.;.+.P V H H <   O $ $ ",
"b b l u A ` ~ ` O.+.O...' ` ` ..O.O.O.+.x.c.c.l.i.p.p.u.F A ~ ~ F _ F ` ' ' ` ` ` _ ` ` O.O.%.+.B.B.l.p.X.X.X.P V H G 9   O $ $ ",
"b b x i k H H H ` ` ' ` ' ' ' O.x.c.x.c.c.c.l.p.R Z Z Z V V G G H G H H [ ` ` ` H H H ] c.B.B.B.c.l.l.p.F | F D V H H <   O $ $ ",
"b b l i v K ( ( [ ' ' ' ' ' ' ..x.v.c.c.l.l.l.p.R ^ ^ ~ V H H H H H H ( [ ' ` ~ H H ( ) B.c.B.c.l.l.l.p.F ` ^ F V H H 9   O # $ ",
"b b x i G ( ( ( ' ' ....' ' ..O.x.c.c.l.l.a.j.p.} ^ ^ ~ V / H H H H ( / ' ` ' ` H ( ( ] B.c.c.l.l.j.l.p.^ ^ ` F H H H 9   O # $ ",
"b b x i G ( ( ( ' ......%...%.%.x.c.l.l.i.u.u.i.Z A A C V V G v H H H H ~ ^ ` _ ) ] &.-.x.f.a.a.p.p.p.W A D D D J ( / 0   O $ $ ",
"b b l u G ( K ( [ ..' ..N.B.B.B.c.l.l.j.R F Z Z M V V V h h c h z x x b H H J ( <.3.1.1.;.o.o.X.F F F Z V V H J ' ' ` e o % & & ",
"b b l i G ( ( ( [ ..{ ..x.c.c.l.l.l.j.p.R ^ F F V G G G h z c c c c b b K K / ) 1.:.:.:.;.;.;.X.` F ` D V H H / ' ` ` e o % & & ",
"b b x i V ( ( ( [ { ` { f.c.l.l.l.l.j.p.R F ^ F V H H G z c x x c b b b ( ( ( ) :.:.;.:.;.;.;.X.^ ` ^ D H H ( / ' ` ` w o % * & ",
"b b x i x H H H { O...O.d.a.a.p.i.i.u.q.Z A A C M k V V z c b b b n n n ) ) ) ) ;.;.X.X.X.o...| A D D A H H H ( { ..` e o % & & ",
"b b x i h x b b ;.:.;.;.:.X.X.o.F F F Z M V V k h h h c x x x b ( ( ( &.{ { { { [ ` P ` ^ ^ ^ D V V H V H H H ) :.:.X.N o % & & ",
"b b x i h b b b =.:.;.;.O.X.X.X.^ ^ F F V G V H h h h c c c b b ( ( ( ) { { ..' ` ` ` ` ` ^ ` F H H H / H ( ( ) :.;.X.t o % & & ",
"b x x i h b b b =.;.o.X.X.X.X.X.^ ^ ^ F V H H V z h c c c b b n ( ( ( ( { ` ` ` ` ` F ` ` ` ^ ` H H / H ( ( ( ) 1.;.X.e o % & & ",
"b b x i l b b b L S S S P P P P A A A C V V G k c c c b b n b n &.) ) *.{ ' ` ` F D D A D D A D / ( ) ) ) *.) -.4.>.+.t o % % & ",
"b b x i G ( ( K z g g g V B V B V V V k h h h h x x x b ( ( ( ( { %...{ ' ' ` ^ V V G V V V V J ' { { O.1.1.3.>.B.l.a.8   O # # ",
"b b x i G K K H z z l l H H H H H H H V j l c l z x x b K / ( ) [ ' ' ..` ` ` F G H H H H H H J [ ` ` | ;.;.;.>.l.j.j.8   O # $ ",
"b b l i G K H H z l l l H J H H H H H G l l l l x z c x H K H H [ ` ` ^ ^ ^ ^ A V V V H H H H H ` ^ P | X.X.X.o.f.p.w.8   O $ $ ",
"x x l a i s 9 9 - ; ; ; < i < < 9 < < < - - ; ; ; ; : : : < < < w q q q q 3 3 3 > , , > > , > < q 3 3 3 e 5 e 4 7 6 6 2 o # $ $ ",
"* * * * @ o + X         . . o o + + o +                         o o o o + + + .                 . o o X o o . o       o # # $ $ ",
"* * * * & % % % # O O # % % % % % % % % O O O O O O O O O O O O % % % % % % % % O O O O O O O O % % % % & $ $ $ O O O O # $ $ $ ",
"* * * * * * * & # # # # % * * * & * & * $ $ # # # # $ $ # # # $ % * % * & * & % $ # # # # # $ $ & & & & & & & & O # $ $ $ $ $ $ ",
"* * * * * * * * $ # # # * * * * & & & * $ $ $ $ $ $ $ $ $ $ $ $ * * * & * * * * $ $ $ # $ # $ $ & & * & & & & & # # $ $ $ $ # $ "
};
