/* XPM */
static char *_0916_a74e69d5901311a3abd432e0cb5779ed27bef20e57231a409d3595201dc08d99[] = {
/* columns rows colors chars-per-pixel */
"64 64 85 1 ",
"  c #45251C",
". c #4A271D",
"X c #4E291F",
"o c #472A22",
"O c #4D2C23",
"+ c #542D23",
"@ c #5A2F24",
"# c #4F332B",
"$ c #563026",
"% c #5C3126",
"& c #55342A",
"* c #5C352A",
"= c #5E382E",
"- c #613327",
"; c #64362A",
": c #68372B",
"> c #66392D",
", c #6C3A2D",
"< c #703D2F",
"1 c #653C32",
"2 c #6A3E32",
"3 c #723E31",
"4 c #5F4139",
"5 c #6D4135",
"6 c #754234",
"7 c #7C4435",
"8 c #774639",
"9 c #7A4739",
"0 c #7D493C",
"q c #7B5E57",
"w c #775F58",
"e c #7C5F58",
"r c #776059",
"t c #7D635C",
"y c #7F6760",
"u c #7E6A63",
"i c #814636",
"p c #8A4636",
"a c #854837",
"s c #814738",
"d c #854939",
"f c #8D4D3C",
"g c #904F3D",
"h c #9A4E3C",
"j c #94503E",
"k c #9C513E",
"l c #A0523F",
"z c #884F40",
"x c #904F40",
"c c #8A5041",
"v c #965240",
"b c #9C5542",
"n c #A35643",
"m c #A95743",
"M c #A15845",
"N c #AD5945",
"B c #B15B47",
"V c #B45E48",
"C c #82645C",
"Z c #846760",
"A c #866A63",
"S c #896D65",
"D c #816F69",
"F c #8B6F68",
"G c #8F7067",
"H c #85726D",
"J c #8D736B",
"K c #92756C",
"L c #95786F",
"P c #8B7770",
"I c #8D7A74",
"U c #8F7D78",
"Y c #907770",
"T c #957B73",
"R c #997E76",
"E c #907E78",
"W c #9B8077",
"Q c #96827C",
"! c #9C827A",
"~ c #A1857D",
"^ c #9A8780",
"/ c #9E8A83",
"( c #A18D86",
") c #A48F88",
"_ c #A6918A",
/* pixels */
"fiaadffp6,;%qSCS6pphkkklhhhgaiiiiaaaaaai<,:;R!~L<pphaaiaiii7iiif",
"bbvvbbjjai7,qCSCshmmmmNNNNmmjvjjjjbvvjjgii7,R!WKphlmvvvvjjvvjvvv",
"MMMMMMMMfpa6CAACfmNVVVVVVVVBMbbnMMMMMMMnfds8RWWJfmNNMMbMMMnMnMMM",
"MMMMMMMbgfd7CSSCflmmBBBBVBBBMMMMMMMMMMMnffa9LWRGplmmbMMnMMbMbMMM",
"ggggggfjaa76GRRG;,,6adadfgggggfgfjjffggfds76TWTt%,<6ggggxfggjffv",
"gggfgfjfdii6K~WA&:,,7ssdffffgfggfffffgjfdss6LWTr+,,6fggfggffffff",
"gfgfffgfdd76K!RA&:,<ddadggggggggjffjffffds66TWTr%,,6gggggggffffv",
"ffffffffss76J!WA*:,6ssssfgggfgffffffffffss76LWTr$:,6gggfffffdfff",
"6<66,,,,,,:%Y_/H$%::,,,,addfddda6<6<,,,,,:;=LWTr+-:2dddi366<36<6",
"<6,,:,;,,:-%Y_/HO%;:>>,,addddddi<6<<:,::::%*LWTrX-:,ddds3<3<<3<<",
",<,6:;:::;%+I_/PO@-;,,:,isaiisi75,<,::,::-%$IWWt.@::iss7,,3<<,<<",
"::::----%%+.I_/PoX$*%%%-36666666,::,--%%$%+$W!Wt +@-6333>:>>>::,",
"CtCtttCCGKKJ()/QZSGAeeCtCCCCCCCCteCCGKKKKGJK))/QASJSeCCCeCeCCCCe",
"CGGCSSCFW~~!(((!RWWRZAAASSSZAAAACSAG!~~~~~~~)((QRW!KyAZASASASASS",
"AAAAASSAWWWW///QITRYtZZAAACSAAAZSSASW!W!WWWW(//QYTRGtZZZZZAAZSCA",
"CASCASCAKLKPUIIPAADAtZZZCCCCAGAACACSLKKJKJJYTPPHuAHAeyZZtCCCZZZA",
"6fjvbbbvzdzdz0d05256dzzd65,>LWWL9dcvzzddssqdd0d95566ffzd55,5tZAA",
"iklmNBNNbbvvvvvvdddpbbbvas7,L!WLdhmmvvvbbhhbvvvgsiaabbvjss65ZAZA",
"plBBVVVVMMMMMMbbfffgMMMbfda6LWWYfmNNbbMMMbMMbbbbfffjMMMbfai6ZAZA",
"plmmNVNVMbMMbMMbgfggMMbbfpi6KWRGfhmMbbbbbbbMbbbbffffMbMjdfi6AFAZ",
"@:,3dgggfggfgfggfjjjddds2<,;JWRy@:><ssaddsdssdssssddddss<,:1RWRJ",
"+:,3dxggggfgggfggfffddds63<:KWYy$:,<ssdsddsdddddddddddds65,5RWTH",
"@:,3fxggggggggggggfffdds33,>K!Ry%,<6sddddddddddddfddddds<<>5R!TA",
"+:33fggggggfffffffffssss36,>K!Wu$:,3ss7sassdddddddddsda76<:5TWTF",
"+;,3dddffjff6<335<6<36<6,,;%R_/H+%::>:,,3337pddfddfs6<<6,:;>W!TA",
"+:23sdddgjjf33336<<6<633,:-%E_/uO%::,,,,3366ddddddsi<<6<,:%=T!WD",
"X*,,7sssfffd33,<<5,<3<<,::%+Q_/uo@-:;:::32<3sdsasii7<<<,-;%*WWTF",
".+;:36666i07>>>:,>:,,>>,%*+OQ_)Ho+%%-*;*:>:266666666>>>:%%+&W!WP",
"GJKKCCCCCCCCCCCCCCCCLLLLLLTT))/QJJKLLLLJtCZCCCCCCCCCCCCALLLW_)(!",
"RWWTZAAASSAASSASSASS~~~~~!~!((//TWW!!!WTZAASSSSSSSSSSSSJ~~!!)))/",
"YRRItZZAZZAAAAASASSSR~W!!WWW///QYTWTWWWLtZAAZSSASSSASAAG!!W!///Q",
"DJGGtCZtCttCSSSSCCCSLLLLLLKKTPHHtAAFJJJAeetCSSSSCCZCCACSLJJKIIPI",
"d0dzdfgf66,-K~WT9pghbjbjvvvjs0ss5666dfd066:>LWWL6fjjbbbvfdddzd0d",
"bbbbbbbbai7,K!WTdhmNBmBBBNNNbvbjaaadbjbjaa75W!WKplmBBBBNbbbbvvvb",
"MMMMMMMMfda7KWWKzmNBVVVVVVVBMMMbfffgMMbbfdi9TWWKgmBVVVVBbMMMMMMb",
"MbbMMbbkjfa7KWWPdhmmBmmmNNNNbbbbffgjMMbbdai6LWWGpkmmNNNmbMMbMbbM",
"gggffjfjas76JWWF237iffffffffffffggggjggd<<:>Y!Wt,67sffffffffzggf",
"ggggfjffaa76JWLF26idffffffffggfgggggjggf<6,>LWWA,6idgffjjfjfxggg",
"ggggjjjjass6GWTF237dffgffjggxgggggjggjgd<<5>L!Wt,7idgjjffjfjfjgg",
"dfddddadsi6,GWTD:<70fdffffgffffffddfddfd<5>>W!QA:<7sfffffffjffff",
"556,6,<<,::%S!TA*:,33<33sddddads5<6,,6,<:::*!_(u@>,6dddddddddads",
"56,6<6<6>:-+S!WA&-,<3333ddddsdds65,6666<::-*Q_/u+:,3daddddadddda",
",,,,,,,<:-%OS~WFO%>>,,<<0iiii7i76,,,,,,5;-%$Q_/uO-:,7i0is7ss7s77",
":5,55,5,>**$J~!J&*>1>2>268686883::5,5>,>>>$&/_)H$*12666668868688",
"CCACLWTWRRTW(_(^KTTKCCAAAAZZZZZZCCCACAAAWWWW))/QJYTKCAZZAAAZCCAC",
"GASSW~~~!!!!((//RRRTZAAAAAAAAAAZAAGCAGAGW!!!)//QRRWYtAAAAAAAGAAA",
"AZCALWTWWWWW///QITTItCZAZZAZZZAAAASGAAAFWWWW///QIRRJtCZAZZZZAAAA",
"wrttCGGGGFAFJJHAttCyeCCCeqeeZAAACCCCCCCCJGGFJHHuttZteCCtqtttGAGA",
"+;<6ddddddddd0d03336dffd63>;tAAC6pjjffcffddfdds7,666gffd65:5WWWL",
"-6iakbbbbbbbbkkjpddfbbbbfi7,tZACflNmbMbbbbvbvvbvaaapbMbbai66WWWJ",
":6pfbMMMMMMMMMMMfffgMMMMffa6CAAZgmNBMMMMMMMMMMMbffjjMMMbfda9TWLH",
":7iakMbkMMbbbbMkggggbMMbffa6AGSZfhnmbbbbbMbbbMMvfffjMMbjsa79TWLD",
"+;:<dgffffffffffggggggfgii76L~WJ>3iafffffffffffffjfjfffa,,:>RWLA",
"+:,6fjggggggggggfgggggggddi3L!WF26iafgfjggfgfgxgjfjjgjgf66,4TWIA",
"+:<6fjgjggjgfgggggggggxzddi6K!RA>7idfggfggggxgxxffjjgjjd<6>5WWLA",
"+-,<aaaddddddddddfddpdpd766<L~!A;<67ddfpdddfdpdpdfaaadaa,,:5W!WD",
"X%>:333356,<<<,<3323<333,:;%Q_/H+@;:23,333233<<<<<<<<<6,::->!_QP",
".@;:233356<66<<633333333,:%$Q_/HO%:>333333333333<<666<66::%4(_^H",
" X@-,,2,,,,,,,,<3,<,,<,,;%%+E_/u.+-;<2,<,3<2,<,<,<,,,,5,;%@&/_^H",
"o*=>22225:55255,2222222211=&Q_/P#&>1255222222222,55555555>*4(_QQ",
"YTRTZZAAASSAAAASSZSSSZSSR!W!_)/^YRRWRRRTZAAAAAAACAAGWW!!))))_(^^",
"TRRTyZAASAAAASSAZSSZSSASW~~~_//^RWWW~!!TyAAASSAAGAAG!W~~)_))((^^",
"YTRKyZZZCZAAAZZZAASAZSASRWRW/Q/QITRRRRRKtZAAASAAAAAFWWQQ(///QQ^Q",
"FPJJtZZZZZCZZAZSASAZSASSTRTTQUIIGJYKIYKFttCASSGAAAAAWYPPQQQuQQPQ"
};
