/* XPM */
static char *_6558_3714a8a0a9c20e542a447934d6ce8ac17525fb473032568f1359e891cd47b937[] = {
/* columns rows colors chars-per-pixel */
"64 64 86 1 ",
"  c #070502",
". c #090704",
"X c #0C0804",
"o c #110D07",
"O c #130F08",
"+ c #16110A",
"@ c #2B1506",
"# c #2F1809",
"$ c #321807",
"% c #341B0A",
"& c #3C1F0B",
"* c #36200F",
"= c #3D200D",
"- c #372110",
"; c #3D2312",
": c #3D2916",
"> c #422514",
", c #462815",
"< c #492916",
"1 c #452C1B",
"2 c #492F1D",
"3 c #572A16",
"4 c #592B16",
"5 c #5F2D18",
"6 c #47311B",
"7 c #4C311E",
"8 c #50321E",
"9 c #602E18",
"0 c #64311A",
"q c #6B341D",
"w c #4E3320",
"e c #4D3D25",
"r c #6E3C20",
"t c #713E21",
"y c #5E4B2F",
"u c #754223",
"i c #7B4525",
"p c #7C4827",
"a c #774728",
"s c #7D4A29",
"d c #624E31",
"f c #665233",
"g c #6A5535",
"h c #6E5837",
"j c #6F5938",
"k c #715A39",
"l c #7A623E",
"z c #804726",
"x c #824827",
"c c #844C2A",
"v c #8B4E2B",
"b c #87502C",
"n c #8C532E",
"m c #94532E",
"M c #99552F",
"N c #8E5530",
"B c #925630",
"V c #9A5630",
"C c #955932",
"Z c #9C5C34",
"A c #A05F36",
"S c #9F6037",
"D c #A26137",
"F c #A56338",
"G c #A96539",
"H c #AD683B",
"J c #B16B3D",
"K c #856B44",
"L c #896E46",
"P c #8C7047",
"I c #8E7249",
"U c #93754B",
"Y c #95784C",
"T c #9A7C4F",
"R c #9D7E50",
"E c #9F8051",
"W c #A48454",
"Q c #A88756",
"! c #A98857",
"~ c #AD8C59",
"^ c #B18E5B",
"/ c #B5925D",
"( c #B8945F",
") c #BA9660",
"_ c #BE9962",
"` c #C29D65",
/* pixels */
"++++XXXXXXXXO+++$=&=qqqqqqqqqqqqrqqqqqqqqrq0==&%++++XXXX++++++++",
"++++XXXXXXXXO++o&&&=0qqqqqqqqqqqqqqqqqqqqqq0===&O+++X..X++++++++",
"++++o. X ...O+oo%&&&9qqqqqqq0q0rqqqqqqqqqqq9=&&%oO++...X+O++++++",
"++++X    .. ooXX$%%%499999999999999959999995&$%$oooo. ..OOOO++++",
"XXXXkUIIIIPK-#%#txvxCZZCVVCCCVCCZCZZVVCZCCVBzzzt$##;PIPPUPUgOXoX",
"XXX I`_)__)Q:%&%vAAVGHGHGGGHHHGHGGGGGGGGHHGAMMVz$&%>/``_))/l.XXX",
"XXX L)))//^T*#%#xVVVAHFFDDGFAGFFAAFFAGAFGAAAmmmi$$$;~(///^~k...X",
"XXX L))!TUYU*@@@vAVVAGFFDGDFFDAFAGFFGFGAAGAAmmBc@@@-RTTR^^Qk...X",
"X.. K/^E:#*%sCNNAGGAGGFFFFFFFFAFGGAFAGAFFAFAAAFAnnna-*%1Q^Qh..X.",
"XXX K)^T*@#@NHHHGGFFGAFFZFZFAZFGAAAFAAFAAFSFFAFFGHGb@#@-Q^Qh .XX",
".X. K/~E-#$@nGGFAFAAAAFAFZAAZFAZAAZAAAAAAZZFAAAAFDDb@%#-Q~Qh...X",
"XX. lTUP-@@@nSCCCBBBCBNCCNCNNNNNNNNNNNBBNNNNBBBBCCZs@@@-TUPd...X",
"+OoX*=**sCBn7162>>>>277777722222,>>>>>>>,>>>>>>>6212NBBs**-%oOOO",
"++++#%$@nJHD<122>>>>121277272222>;>;>>>>;>>;;>;>221<FHHc@%%%OOOO",
"O+oX%&%@nHGZ6277>>;>272w2ww72w22>>>>>><>>>>>>>>>7722DGDc@%&#oO+O",
"OOOX#%%@nHGZ7778>;;;1117wwww2221;;;>><>>>;;;;;;>7728DGFc@#%%XoOO",
"%*%$uvvxDGGZ27w2svxvVAVBw7w2BZZCZCZv>>><BZZCCCCb7777SGDZxcvt#$%&",
"===$xAVVGGDZ2271vAAAGGGC2272ZHGGGGGB>>>>SHHGHGGN1727DGDDVVVz%&&&",
"&=%%vVVVDGDZ82w1vVVVGGAC2221ZGGGDFAB;>>>ZGGGGDDN>727DGGDmMMt%&&&",
"===%xAVVDGDZ2221vVVVDDAB2271CAAAFFAm;>>>ZGDDGDAN2777DGDDmBMi%&=&",
"0093MGGFGDDZ2271CGDGGDAB>>>>cmmmADFB<221NBmVDDDb1w27DGDDDDDn499q",
"qqq9MHGGGDDZ7221CGGDAAZN>;>;cmmmADAB2222vBmmDDAN:w22SGGGGGDn9qqq",
"qqq5MGFFDGDZ2771BDDZSZZN>>>>cMmmAZZB2222vMmmZZZb1w1wDGDDDGDm9qqq",
"qqq9MGFFDDDC2772bCNNbbvs>>>>zvccNbNc2ww2xcxxNbNs2w2wSGDGDDDn9qqq",
"qqq0BGFFDDDC72www212:>;>2ww22211;>>>7www22>1;;>>7w78ZGGDDDDm50qq",
"qqq9BGFFFDDC728ww722>>>>7wwww222>;>>7wwww2w2>>>>ww77DGDGGDAn5qqq",
"qqq5BGFDDDDC77www727>>:>wwwww227>>>,wwww7ww2>>;,7w77DGDDDDDn9qqq",
"qqq5mGFDDDDC22ww7212>;>>wwww7222>;;,wwww2222;>>>ww77SDDGDDDn5qqq",
"qqq5mFDFDDDC2272NZZZZZZNw277BAZZZZZN777wCSSZZZZb2w27AGDDDDDn5qqq",
"qqq9mGFDDDDC6771ZGGGGGGC8222ZHGGGGGC2772DGGGHGGB1227DDDDDDDb5qqq",
"qqq9BGFFDDDC2221CGFFFFSC2222ZGFFDGDB1222SGGDFDDb1727DGGDDDDv5qqq",
"qqq9BGFDDDDC8271CGFFFSFN2222ZFFFDDDN2722ZGDGDFDN1727AGDDGDDn5qqq",
"qqq5CGFAFAAC7221CGFFFFZB2221ZFFFDDDB2272ZGFFDADN1w1wAGFFDDDb9qqq",
"qqq5CGFFFFFC7221BFDFAZFB22w2CFFADDDN1222ZFFFDFDb1227DGFFFDAN5qqq",
"qqq5BGFFAFAZ22w1CFDAZFAB22w1CGAADSDN27w2ZFFAZZDN122wDGDGFDDN9qqq",
"qrq9BGFFFFAC2222sNbbbbcc2ww2cNvcbbNs22w7NNNvNbbs272wDGFDFDDN50qr",
"qqq9BGFFAFAB<>><>;;;;;;>2www>>>;;;;>wwww7111;;;>ww7wAGDGFDAN50rq",
"qqq5CGFFFFFC>><>>>>>>>>>wwww>>>>>>>,7www7772>>>,ww72AGGDFFFv50qq",
"qqq5BGFFFSZC>>>>>>;>>>>>wwww>>>>>;>>7www7772>>>>ww2wDGDFAFAm9qqq",
"qqq5BFFFDFFC<>>>,>>>>>>,7ww21>>,>>>,7w7w7722>>,,772wDDGDDDAv9qqq",
"qqq5mGAFDDDC,;>>cmmmAAAC>>>>VAAZmmmz>>><ZAAFDSDN2w28DDGDDFDN40r0",
"qqq9mAAFDDAC,>>=vVVVAHGC>>>>ZHHGVMVc;>>>AHHGGGFN1277DGDDDAZN5qqr",
"qqq9BGFADDAB,>>;vVMMFFAB>;>;ZGGAmmmx;>;>ZGFGFFZN1727ADDDAAZb9qqq",
"q9q4vAZADDDB,;>;cVMMFFAB>>>;CGFAVVVv;>>>ZAAADDDN1727DGDDZZZc49qq",
"===&ammvADAZ7121cVmmAFAN>;>>CGFFAGDB>>>>vBmmAAFb122wADDZvvvt%===",
"&&&%iBmMAADZ7171vMmmADZN>;>;CFFFDAAN;>;>vVmBAAZb1227AGDZvvmt$&&=",
"=&=%tMvmAAAC7771xVmmZZZN>>>;CGSAAZAB;>>>vVmmAZAb1227ADAVvmvt%=&&",
"%&%%rxttZGAC7272uzssccca,,>:cNbcvNbs,>>,zziivbba2w77AGAvttt9$%%&",
"+OoX#%$@cDDC727721>:;;;;277w11111:>22ww721111:>27w27DDSp@$$#XoO+",
"++Oo%&%@cGDZ627w7www>;>>7www77772wwwwwww7776www7w727SDSa#$**oOO+",
"+++O%%$@bGDZ11722722>;>>27772777222w2www2272217722:2SSSs@$$#O+++",
"++Oo->>;acas227777ww2,,<8ww78w78ww877788ww7www887722spsu=:>=OO++",
"XX. L(^R-@@@nGGGDDGDFFFFAGADGDDDDFGFDGDDDGDDDFDDDDDb@@@*!^^lXXXX",
"XX. K``W-##@nGDGGGGGGGGGGGGGGGGHGGGGGGGGGDGGGDGDGDDc@##=^(/k X X",
"XXX K)/R*@#@nGADFGDGFFFFAGGGDGDDGGGDGGGDFFDDDDDDAZSc@#@*~/!h XXX",
"XXX.K(/Q6=-=axpxCZZSSFFFGAAGGDDGDDDGDGDFFDDDZZCmiaau-:=6//!hXXXX",
"+++oL)~/~^^W-@@@tMmmAAFFFFFFFFFADDDFFDDGDDDZvvvt@@@-~^/^/~Qho+++",
"+++oK/~~~/~T-$%#immmAAFFAFZFAFAADFDDDDDSDDSZvnvt#%$=!)/^~!Qho+++",
"+++oK~QWWWWI=%&%xMmMAFAFFZAAAAAASDDDDDDDDSZZvvvu%&%>W!WWWETh++++",
"++++djgffydy*$%#rtttvvvvbNbbbvvcbbvbcbbcvccxtrr0#%%-gfdyyyde++++",
"++++++OX    X+XX$%%%355945559955599959559994%%%%XXOo       X++++",
"++++++++XXXX+++O$=&&9qqqr9qqqqqqqqqqr99rqqq9&&&%ooOOXXXXX Xo++++",
"++++++++XX X+++O%===9qqqqqqqqqqqqqqqqqrqqqq0=&&&o+O+X XXXX X++++",
"++++++++XXXX++++%=&;0qqqqqrqqqqqqqqqqqqqqqqq=&&&o++OXXX XXXo++++"
};
