/* XPM */
static char *_991_594e62fc2707b41bc513435f7e67780b9059fd619b3525730f8b31e447353068[] = {
/* columns rows colors chars-per-pixel */
"64 64 32 1 ",
"  c #564D4D",
". c #584E4F",
"X c #594F50",
"o c #5D5353",
"O c #5F5858",
"+ c #625757",
"@ c #635758",
"# c #655A5A",
"$ c #695E5E",
"% c #6B5F60",
"& c #676060",
"* c #6C6464",
"= c #6F6868",
"- c #716565",
"; c #706768",
": c #726B6B",
"> c #7A6E6E",
", c #756F70",
"< c #767171",
"1 c #7B7474",
"2 c #7D7778",
"3 c #7E7879",
"4 c #827676",
"5 c #847778",
"6 c #857A7A",
"7 c #897D7D",
"8 c #8C7F80",
"9 c #8D8181",
"0 c #928585",
"q c #958788",
"w c #968989",
"e c #988B8B",
/* pixels */
"++@@@@@@+++++++++++++++@++@++++++++++#+@+++#$%%%%%%$$$%$++#+++++",
"+@@@@@@@@@@+++++@@+++++@+++++@#++++@#+@@+###%$%$%%%$$$$$++++++++",
"@@@@@@@@@@#++#@##@@+@@@@+++#+++@@@@+@+#+#+##$%$%$$$$$$$$#+++#+++",
"@@@@+#@#@##@#@#######@@@++#+@@@@@@#+##@#++##%$$$$$$$$$#$++++++#+",
"+@@@@@@@%%%%--==<11<****$$$$++@@#@##$$$%$$$$%$$$$$$$+++++++++++#",
"@@@@#@@#%%%%--:-2331*==**$$$+#@#+@@#$$-$%$$%%$%%$$$$++++$+++++++",
"@@@@++@#%%%%-===1221**=*$$$$@@@@#@@#$$$$$%$%$%$$$$$$+++++++++$++",
"@@@@####%%%*:::-11<<&**&$-*$#######$$-$$%$%$%$%*%%%$+###++++++++",
"+++#$%%%44136664#O&&OO+o<11<*=-=----*=**$$$-**=**=-=***$++++++@@",
"#+++$%%%13337774#&*&&#@O1631=*==----===*$$$$==-==*=*-==*++++++@@",
"+++#$%%-13337664&&**$$#+<311*==*=*-==*=*$$$%*==**==*=*-*++++++++",
"+###$%%%133341>>&**=$$$#:<<>====*=-**=**%$%%-=*=*-*=*=-$+++$@++@",
"++#+$%%%4764..++##+##+#+Ooo.4674=*=*=***$$%%--=*=-*=---$$+4+++@+",
"#++#$$%%4764..o++++++++++oo.4874*****==*%$%%:*-**==*---$$++$+++$",
"#++#$%%%4964oo++++++++++++oo4874********$%%%*:***=*=+$4+$@$$++++",
"+#++$%%%6974+++++++++++#+++o477>&**=****%%%%=**:=*=*4$+4@$@$$@++",
"+++#$$%%9w07##$##+++++#+**&&6774****$$%%*--==**=*=*=***&+++#$$$$",
"+#+#$$%%9ew9##$$+++++#+#***&677>&&**$$$%-==-===-=*-*=**&+++#$$$$",
"++++$%%%7w09#+$$#+++++#+**&&5764****$%%%==-=-=--===**==&++++$$$$",
"+++#$%$$7097OO+#+++##+#+&&#O466>&&**$%%%==::==::=:=====$+++#$$$$",
"++++$$%%<1119996++++***&900711<,#$$$-===313366766666411<#$$$$$$$",
"+++$$$%$<1130ww7+o++***&0ew011<,#$$$-===333377767766111<$$$$$$$$",
"++++$$$%<1130007oo++&*&$9ww9<1<,#$$&===:333346644664111:#$$$$$$#",
"++++$%$%<<<<7997..o+&&$O8996:,,,#$$&=:=:363144>4>>4>111<#$$$$$$$",
"++++$$$$$-%%<<<1990000091<<:&&&&#$$%4333ww06oo++o...6641****#$$#",
"++++$$$$%-%-<113weeweww0<<<<&**&$$%*13330004++++++o.6661$=**$$$$",
"++++$$$$**--<1110e000008<<<<*&&*$$%%33330094+$$$++o+6661****$$$#",
"++++$$$$****:<<>66666654::::&&**&*%-3633644>#+$$+++o441<*==*#$##",
"+++++@++#$$$##+#&&&&#&&&++####$$**-:0e06..oo+#+#+++#&&OO131:o+++",
"++++++++$$$$$$$$%**&*&&&+&##$$$&-=-:0e06..+++++++++#**&&111:o+o+",
"+++@@@@+$$$$$$$$*******&&&$$$$$$*:=:0e06o+++++++++++**&&11<=o+++",
"$+@@@@$+$*%%*$$******&&*$$$$$$$$=**:0006o++#+++++++#***&<<>*o+++",
"$$$$@@@#*==-*===$$$#$$$$**=*$$$$*:=:0e06&&**@@+++++#$$&#&&&$++++",
"%$$$@+#@*=-===**%%%$$$$$;=**$$%$***=0006&***@@+++@++$$#+*=&*O+++",
"$$$$#+##-=======%%%%%%$$*;**$$$*-*=:0e06#&**@@@O+++#&#+o***&++++",
"%$$$@@@@*-===:::--------;;;=$$%$==*:7996O&&&@@@#+#@+##Oo&*&&+++@",
"%%$$++##*===2223ww0ww0w0321<$$$%*=*=1<<49007$***&$#&131,###$++++",
"%$$$#+@#*===2323wwww0000123<$$$%**=*1113qww7&*==$$$#232,#$%#++++",
"%$$$@###=-=-2333000000081<2<$$$$=**=11130006#&&&###+121:$#$#+@#+",
"%$$%@+##-:::3636744441431221%*******<<<<9996O&$&##++<<,=####@@##",
"$$$$+++$2333wew9+@&#OOO.4666443<&#$$&&**<1<300006664*&&&+++@%%$%",
"$$$$+##+<3330w07#&&*&$@O4666112<$$#$****111300w06764&*&$++@@%$%#",
"$$$$#+##<3230097&***$###4466111<#$$&***=11110008446>&=*$+++@$$%$",
"$$$$++##2666633>&&**$$$#>>>>433>$$%%****:::,5544>>>>&&*%++@#$$$$",
"$$$$+###8ew9#O&&@@@@+++@+.  4764****$##$&+##&#&&$$&&##$#$$$$$$$$",
"$$$$#+@@8e08&&&*@@++++++++o.4664&***$&$$#&$$*&&&&*&&#$$$$$$$$$$$",
"$$$$@+@#8w08&&**#++++++++++.4764****$$$$$$$$=**=***&#$#$$$$$$$$$",
"$$$$#+#@6986&&*&#+@++@@@@@++4764&***&$*$%%$$&&&&&*&*%%%%$$$$$$$$",
"$$$$+@@+454>.++++++++#@@$$##476>&**==**=-=-*$##$$##$=*=*$$$$$$$$",
"$$$$#@#+4744oo++++++++++$$$@6664&*****==****$$$#$$#****&$#$$$$$$",
"$$$#@@+#4444.o++#+++@@@O$#@O4764&********=*%#$$$$$$$*==*$$$$$$$$",
"#$##@+@@>44>o.o++++@####$#@O464<&***=**=**-%$$$$%%$****&####$$$#",
"+++o++@@&*&*411<Oo++***&687711<,&***=****=**$#$$=-=****&o+++$$$$",
"++++++@@****>41>oo++***&6766<1<,************$$$$******&&+++#$$$$",
"++++++@@****111<.ooO&*&&5764<<1,&&&********&$#$$***=*&*&+++@$$$$",
"++++++++&&&&==:=..oO&&&O>>>>===*#&&&&&*&*&*&$$#$*&&&$&$&+o+@@$#@",
"++#++#+++o+o#++#**==>62<*&$&++++ooo+#&###$$$$#$$##$#ooo+++++++++",
"++++++++++++$$$&**==111<*&&&####ooo+$$$$$$$#$$$$$$$#++++++++o+o+",
"++++++++++++$$$$*=*=111<&&&&####++++$$$$$$$$$$$$$$##++++++++++++",
"++++++++###+$$$$$***===*&&#&###+++++######@@@#@####+++@+++++@+++",
"++++++##$%$$$$$$#$$#oXXXoooo+o+o+++++++++++++++++++++++++@++@++@",
"++++++++$$$$$$$$$$$#+++oo++++++++++++++++++++++@+++++++++++@@@++",
"++#++@++$$$$$$$$$$$#+++++++o+++++++++++++@@@+@@@@@+++@@+++++++++",
"++++@@++$$$$##$##$##+++++++++@+++++++++++@@@@@#@@@@+#+#@+@++@++@"
};
