/* XPM */
static char *_6410_e076e6be63da4f1b192b82064a9bf75d19c3b5c3632a9971dadd495b1d251214[] = {
/* columns rows colors chars-per-pixel */
"64 64 179 2 ",
"   c #444443",
".  c #4B4A44",
"X  c #4C4C4C",
"o  c #524E46",
"O  c #535247",
"+  c #53524D",
"@  c #5C564B",
"#  c #5D5A4F",
"$  c #545454",
"%  c #5A5751",
"&  c #5B5A55",
"*  c #565759",
"=  c #575859",
"-  c #5C5C5C",
";  c #625A4B",
":  c #615D51",
">  c #685F50",
",  c #666255",
"<  c #696556",
"1  c #64635D",
"2  c #6A655C",
"3  c #6D6B5B",
"4  c #736B5D",
"5  c #796F5F",
"6  c #74725E",
"7  c #5E5F60",
"8  c #636363",
"9  c #696661",
"0  c #6C6A64",
"q  c #676768",
"w  c #66686A",
"e  c #6C6C6C",
"r  c #726D63",
"t  c #716F6C",
"y  c #727164",
"u  c #797465",
"i  c #7C7A66",
"p  c #73726C",
"a  c #7A7469",
"s  c #6E6F70",
"d  c #6F7173",
"f  c #747475",
"g  c #787776",
"h  c #797971",
"j  c #767678",
"k  c #7A7A7A",
"l  c #807E6C",
"z  c #B8842E",
"x  c #BC8933",
"c  c #B78938",
"v  c #C58C2E",
"b  c #C98F2E",
"n  c #CE912D",
"m  c #D2952F",
"M  c #DC9B2E",
"N  c #C68E33",
"B  c #C88F33",
"V  c #C38F3B",
"C  c #CB9334",
"Z  c #C6913A",
"A  c #CB9538",
"S  c #D29632",
"D  c #D59934",
"F  c #DC9C33",
"G  c #D09738",
"H  c #D39939",
"J  c #E29E2F",
"K  c #E29F31",
"L  c #DEA233",
"P  c #E7A22F",
"I  c #E5A132",
"U  c #EBA431",
"Y  c #EFAE37",
"T  c #E5A93B",
"R  c #F0A731",
"E  c #F2A932",
"W  c #F1B038",
"Q  c #B7A847",
"!  c #B9AF4C",
"~  c #BBB14C",
"^  c #BCB356",
"/  c #808079",
"(  c #B5B27D",
")  c #CC9940",
"_  c #C4BA4D",
"`  c #CABE4D",
"'  c #C5BB50",
"]  c #C6BC5A",
"[  c #E1A947",
"{  c #CEC24F",
"}  c #DDCB4E",
"|  c #CDC251",
" . c #CAC058",
".. c #D6CA52",
"X. c #D9CD55",
"o. c #D3C75B",
"O. c #D4C95A",
"+. c #DACE5A",
"@. c #DDD154",
"#. c #DED25A",
"$. c #E2CF51",
"%. c #E2D454",
"&. c #E6DA57",
"*. c #EADC57",
"=. c #E4D75A",
"-. c #E6DA5B",
";. c #EBDE5A",
":. c #EDE05D",
">. c #F3E45B",
",. c #F6E85C",
"<. c #FAEB5E",
"1. c #FFF15F",
"2. c #DBD168",
"3. c #E6DA61",
"4. c #E5DB67",
"5. c #E5DA69",
"6. c #EEE268",
"7. c #F7E960",
"8. c #F4E869",
"9. c #F1E777",
"0. c #848484",
"q. c #888888",
"w. c #B6B583",
"e. c #BABA87",
"r. c #BCBC8B",
"t. c gray74",
"y. c #C3BF84",
"u. c #CBC685",
"i. c #C3C38D",
"p. c #C9C98E",
"a. c #D5D18C",
"s. c #D9D18C",
"d. c #CBCB93",
"f. c #CDCD9A",
"g. c #D2CE93",
"h. c #D4D394",
"j. c #D9D494",
"k. c #DCD895",
"l. c #D5D59B",
"z. c #DBD79A",
"x. c #DADA9D",
"c. c #E5DD94",
"v. c #E3DE99",
"b. c #E5E29F",
"n. c #EAE39A",
"m. c #ECEA9F",
"M. c #DDDDA2",
"N. c #E3E3A3",
"B. c #ECEBA4",
"V. c #E3E3AB",
"C. c #EDEDAA",
"Z. c #F0EFA3",
"A. c #F4F3A5",
"S. c #FAF8A6",
"D. c #F3F3AC",
"F. c #F8F8AE",
"G. c #EFEFB2",
"H. c #F4F4B2",
"J. c #FCFCB3",
"K. c #FBFBBB",
"L. c #C8C8C7",
"P. c #CACACB",
"I. c #D9D2C5",
"U. c #D9D5C9",
"Y. c gray83",
"T. c #DCD9D4",
"R. c #DCDCDB",
"E. c #E3E3D7",
"W. c #E3E1DA",
"Q. c #DFDFE0",
"!. c #E4E4E4",
"~. c #ECEBE5",
"^. c #ECECE9",
"/. c #F1F2ED",
"(. c #EFEFF0",
"). c #F5F5F4",
"_. c #FBFBF5",
"`. c #F5F6F8",
"'. c #FDFDFD",
/* pixels */
"q.q.q.q.k j j g g g k k q.q.q.q.k j f f e e e e e e e f f f f f q q q q - - - - q q q e q e e e f g g k q.q.q.q.q.q.q.0.0.q.0.q.",
"q.q.q.0.k g j g g g f k q.q.q.0.g g f f e e s e e e e e g f j f e e e e 1 7 - 8 e e e e e e e e k f k k q.q.q.q.q.0.q.0.q.0.0.0.",
"0.0.0.0.g g g g g j g k 0.q.0.0.f f f f e e d e e e f e f k j f e e e q - 8 8 8 e e e e e e e t g j g k q.0.0.q.0.0.q.0.0.q.q.0.",
"0.0.0.0.g j g g j j j j 0.0.q.k f f f f f e s p f f e f k k k j t e f q 8 8 8 8 e e e e e q e e f f f j 0.k 0.0.0.0.0.0.0.k 0.0.",
"f f f f g k g j p e e e f f f f 8 8 8 8 0.0.0.q.0.0.0.0.q.0.0.0.0.0.q.k f f f f g j j f 8 : 8 8 8 8 8 8 8 8 8 q f f f f q e q e ",
"f f k f f f g f e e e e f f f f 8 - 8 8 0.q.q.q.q.q.q.q.q.q.0.q.q.q.q.0.f k k k g g g f 7 8 7 7 8 : 7 7 7 - - 8 g f f f q e e e ",
"k f k f k f g f e e e e f f f f 7 - - 7 / q.q.q.q.q.0.q.0.0.0.0.0.0.0.0.f f f g g g j s 8 8 7 8 7 - * = - - - 8 k f g f e e e e ",
"k f f k f f f f e q q e f f f f - $ $ - k 0./ 0.0.0.0./ 0.k 0.k k k 0.k f f f f j f j f 8 8 8 8 * $ $ X X $ X - f f f f e e e f ",
"k f k f s e e e 8 7 7 8 8 8 8 - ^ +.O.] y e s s f f f f q 8 8 8 8 8 8 q e e e e e e t d f f e f h.x.l.h.o.O.O.^ t f g j f g g g ",
"g k g f e e e e 7 8 1 8 7 7 - $ #.1.7.&.< 8 q e f f f f 8 - - - - - - 8 q e e e e d e t f f s y D.K.J.S.,.,.,. .8 f f g k f j k ",
"k j g j e e e e 8 8 8 8 8 - - $ O.,.:..., 8 w e f g f f - - * - $ - - - e e e e e t s d f f t t C.H.D.B.;.:.;.' 8 p f f f k g k ",
"k k k k s f s e 8 8 8 8 8 8 - % ` &.@.{ < 8 q e g f f f - $ + $ $ $ + - e e t d d d t d f f t t l.x.h.a.......! q f f f f f f j ",
"q.q.q.q.0.0.0.q.0.0.0./ f f f s h i i i 0 s f f f f f e f.M.l.h.A H D Z r d f f 0.q.q.0.k j f d y 0 0 0 u i i a 1 q e e e e e f ",
"q.q.q.q.q.q.q.q.q.q.q.q.k k k f k k k 0.f f f f f f e 8 B.J.J.B.T R E F 2 s f g q.q.q.0.j j f f s e 0 e j j k k 8 q q e e e e e ",
"q.q.0.q.0.0.q.0.q.q.q.q.k k f g 0.k 0.0.f f f f f s e 8 M.F.C.b.F I U D 2 e f g q.0.q.0.j g j f f d d f 0.k 0.0.8 e e e e e e f ",
"0.0.0.k 0.0.0.0.0.0.0.0.f f f f 0.k 0./ f e s d p f e 9 p.h.g.p.A F F S 2 d f f 0.0.0.l g j j j f f f g k 0.0.k w e t e s s t e ",
"q e e e f f f k f g j f e e e e e e e q 8 7 7 - 7 - - - 1 & - : 2 5 5 u q f f f s e e e f f f g 0./ 0.k q q 0 e f g g g j g k j ",
"e e e e f g g f f k f g e e e e e e 0 q 1 - - - - - - - - - = - f f f j p f f f q q q w e d f f 0.0.0.k 9 q w e g g g g g k g j ",
"e e t q f k k f j f k f f e d e e e e e - $ $ $ $ $ $ $ - 7 1 8 j k k 0.f f f f q 8 1 8 e e e f 0.0.0.g q q w e g g g g g k g g ",
"e e s f k k k k k g g j e e e e q q q q - $ $ $ + X $ $ 8 8 8 8 k k 0./ e f f f 8 - - - 8 8 q e g k k f 8 q q e f f f j k k k g ",
"f g j g q.q.q.0.k f k k f f f f 8 - - $ L.!.Q.R.M.M.x.d.8 q e e f f t f e q 8 q T.!.Q.W.M.M.M.i.8 w e e - - 7 8 e e e d q.q.0.0.",
"f f k k 0.q.q.0.k g g g f f e s - $ + X R.'.'.'.K.J.F.x.- : q e d d f e q q 1 8 ^.'.'._.J.F.F.p.- 8 e w 7 7 1 8 s e e f q.q.q.0.",
"f g f j 0.q.0.0.k f j k f e e q $ X     R.'._.).H.D.D.h.% $ 8 q e s t s q q - 8 !._.`./.C.C.B.i.- 8 w 0 7 7 7 8 e s e d 0.0.0.0.",
"f f d f 0./ 0.0.g k f f f 8 8 7 $ X     T.)./.~.C.B.B.h.O X % 1 e t d f q 8 - 7 R.^.~.E.x.j.j.( & 8 q e 1 8 8 q s s d d 0.0.0.0.",
"q e e e f f f g j f f q P.^.!.!.M.m.b.N.9.6.4.3.3.-.3.+.C D F G a g k k d e 8 1 2.5.4.o.A A A c 1 e d d j g j g g g g g g g j f ",
"q e e e f f f g f f f 8 R.'.'.'.E.S.J.F.6.>.;.;.&.;.&.@.L U U F r j 0.k d t q 2 %.;.&.} M M M v 1 e f f j k g k k k k g g g g f ",
"e e e e f f f f f f e 8 Y.).)./.G.C.A.B.3.;.-.-.&.&.&.%.F P I D r j k 0.f s q 1 %.;.&.} M M J C 9 d f g g g j g g k g k g g g f ",
"e e t e f f f f p f s 8 t.Y.P.L.d.p.p.p. .{ { | | | { ` C S M B r g k k e e q 3 _ ` _ ~ v b n z 9 d f j k k k k k k k k k k k g ",
"e e e e 8 8 8 7 7 - - - w 8 8 8 8 1 1 2 y y y y y y e 0 4 r 4 r - - - - - - - $ + O O O # : ; , 8 q e p 0.q.q.q.q.q.0.q.q.q.q.0.",
"e e e s 8 - - - - - = - q q 8 w q w q w f j j j f f j d d f f f - $ - $ - - $ - $ $ $ $ - 7 8 q q q q f 0.q.q.q.q.q.q.q.q.q.q.0.",
"e e e e 8 * * $ $ * $ $ e e e e s e t e k k / k k k k 0.k k k f - $ $ $ $ $ $ $ & * $ - 8 8 q q q e e f 0.q.0.q.0.q.0.q.q.0.0.0.",
"s f f e 1 & $ % + + % # 0 d f p f f f f k 0.0.k l 0.k k k g f f - $ $ $ + + $ & $ - - - q q e e e e e f 0.0.0.0.0.q.0.0.0.k 0.0.",
"0.0.0.f f.C.B.N.5.=.&.X.y e e f k 0.0.0.f e f e 8 8 8 8 : - * * Y.~.^.!.V.N.N.d.1 q e e q q e e g g k g g f j k q.q.q.k q q e t ",
"0.q.k d M.J.J.F.8.,.>.%.3 q p f 0.0.k k f e f e q q 8 8 7 $ X X !.'.'._.J.J.F.h.& 7 q e q e e e g f k g g j g k q.q.q.0.e e e f ",
"0.0.0.d l.H.D.C.5.;.;.X.3 q s f k 0.k 0.f d f e q q q q * X     Q.'.`./.H.D.C.d.+ * 8 q 8 q e e j g g k k k j k q.q.q.k e e e s ",
"0.0.0.g r.g.p.p. .| | _ 6 e f f k k k j t f f s q 0 q q - X . X U.W.T.T.z.k.j.y.o O : 1 q q e t k k k k k k k k q.0.0.k e t e f ",
"g g f d e 8 9 8 e y y f q e f d 8 8 - 8 p f f f e q q 1 M.B.B.b.[ D H G C S D D D F I A 9 e f f q.q.q.0.q.q.q.q.0.q.0.0.g g k g ",
"f f f f f s e e g k k k f e e p - - - - f f f f e q q : N.J.H.B.T J J J J J J I U U U S 1 e d g 0.q.q.q.q.0.q.q.0.q.0.0.j k j k ",
"f f f f f f s f k k 0.0.p d f p - - - - f f f f e q 8 - z.C.N.v.H J J K J P I P I I I S 1 e f f 0.0.0.q.0.q.0.q.q.0.q.0.f f j g ",
"p f e s f f f d 0.0.0./ d f f f 1 # # & e e f f e q 8 8 r.y.e.w.x v v b C C S C S S S x 1 e s p g k k k 0.k 0.k k k k k f f f f ",
"- 7 - 7 p g f f q q q q f f f q O.:.;.X.3 q q q 7 : 7 * * % + + % % % % 2 0 0 2 0 9 0 r - - - 7 7 7 7 8 f f f f q e q e q e e e ",
"7 7 7 8 f f f f e q e e p f p 8 #.<.>.@.< 8 q e 7 7 7 7 - * * $ - 7 - - d f f d f t d f - * * - - - - 8 f f f f e e e e e e e e ",
"8 8 8 8 f k f f e e e e f f e 8 O.>.:...< 8 q e 7 7 7 7 : 7 - - 8 8 8 8 j k k f g g g f $ $ $ $ $ * * 7 f f f f e q e q e e e e ",
"8 8 8 q f g g g d e s d f f f q ^ { ` ~ 3 q e s q q q q q 7 7 8 q q q q f k f f g g f d 1 & & & @ @ ; > f f f f f f f f e f e p ",
"k k g k k k j g g g g g g f f e 0 8 1 9 k / 0.q.0.q.q.0.q.0.0.0.0.k k k 1 - - - 7 8 - 1 N.D.C.c.I I T H p k 0.0.0.q.q.0.k k k k ",
"j g k k g g g g g g g k g f f f f e s e 0.0.0.0.q.q.q.q.q.q.q.0.0.l k g - $ $ $ - - $ $ C.J.J.n.I Y R G 2 f k 0.0.0.q.0.f g k f ",
"g g k g g j g g g g f f f f f f f d f f 0.0.0.q.0.0.0.q.0.0.0.0.k f f e $ X X X $ $ . O C.J.F.c.K U R S - q f k 0.0.0.k f f f k ",
"g k g g f f j j f f f f d f d e p s d d 0.0.0.0.q.0.q.0./ 0.0./ 0.g f p - - - - - % + : B.A.B.n.T W W H ; < 4 a k k 0.k f f f f ",
"k j g j s e e e e e e q 8 7 1 - 7 7 7 8 0.0.0.0.0.0.q.0.e e q 9 M.F.D.H.^.(.(.^.G.C.C.Z.7.6.;.;.:.>.>.$.F I I A e f g f q e e e ",
"k k k g d e e s s e e e 8 - - - * 7 : 7 0.0.0.0.q.0.0.0.t q q 7 N.J.J.K._.'.'._.J.J.J.A.;.;.*.;.;.;.;.$.I I U C 9 e f f e e e d ",
"k k k g s e e s s e e e - $ $ $ $ $ $ 7 k 0.0.0.0.q.0.0.t q 8 1 N.F.F.H.).`.)./.H.D.C.m.-.&.*.&.&.&.&.} M J I B q d f f e e t d ",
"k 0.k k f f f j p s f e 0 1 1 1 ; ; ; > k 0.k 0.0.k 0.k d e q 9 y.d.i.p.I.I.I.I.j.a.s.u.! ! ~ ~ ! ! ! Q N B B c 0 f f f t d t f ",
"q.q.q.q.q.q.q.0.g f f e l.F.D.B.[ U U K r d f f d f j j j j f d f 8 - @ B D S S m S m z . + % * % % - - : 8 8 0 e f j g g k k k ",
"q.q.q.q.q.q.q.q.k f s 8 M.J.H.C.[ R R J 4 e f j j j j k j j j f j f e : F I K J J J J v + - 8 8 7 7 : 8 e e e d f f j g g g k k ",
"q.0.q.q.q.q.0.0.g g f q l.D.C.b.) J U J 4 t j g j j k k l j j j k 0.j 9 F I K K J K J b % 8 q q 8 q q q f f f f f f f g k j j k ",
"0.0.0.k k k k k f f s e w.i.e.w.) B B B r f j j k l k k k j j j 0.k k p V C B B N N N c 8 e p f q q q e d f d f f f f f j g k g ",
"g f f f q q q w q e q q q 8 8 8 e t d j k q.0.q.q.q.q.q.j g j j f t e e f d d t e f p g q e e e 9 q q e q e e q q q e s k g g j ",
"g g f f e e e e e e e q p p e s j j l 0.0.0.0.0.0.0.q.0.g g g g f f f f l 0.k j k k k k e p f d q e q q e q e e e e e e g k k g ",
"g j g j t e e e e e e e f f f f 0.0.0.0.0.0.0.0.0.q.q.0.j k j j f f f f 0.0.0.0.k 0.0.0.f d f e q e q e e e q e t e s f k k g k ",
"g g g g p s d d s s p s f f f f / 0./ 0.k 0.k 0.k k k / k k k j f f f f k 0.k 0.0.0./ k f s f t s e e f e t f f f f f g k k k k ",
"j g j g k k j j j k k g g g f g f f f f f f f d w q e e 0.q.q.0.g f f f f d d t e p d s f f f f g f g g k j k k q.q.q.q.q.q.q.q.",
"j g g g g g g k g g j k g g g g j f f f f f f f e e e s 0.q.0.0.f f f f f f f d f s f f f f f f f g g g f k g k q.q.q.q.q.q.q.q.",
"j j g g g j j j g g j g g k g g j k f g f g j f e e e s 0.0.0.0.g f f f f f f d f f f f f f j f g g g g k k k k q.q.q.0.q.0.q.0.",
"g k k k g g g k g j k g k g k k g g g j f f f f e e e t 0.0.0.l f f d f t f d d f f d f d f f j g g g g k k k k q.q.q.q.0.q.q.0."
};
